<svg xmlns="http://www.w3.org/2000/svg" xmlns:xlink="http://www.w3.org/1999/xlink" width="775" zoomAndPan="magnify" viewBox="0 0 581.25 605.999999" height="808" preserveAspectRatio="xMidYMid meet" version="1.0"><defs><g/><clipPath id="bdd99bae1c"><path d="M 182.363281 84.15625 L 219.816406 84.15625 L 219.816406 186.773438 L 182.363281 186.773438 Z M 182.363281 84.15625 " clip-rule="nonzero"/></clipPath><clipPath id="176c1d425c"><path d="M 131.523438 0.390625 L 270.472656 0.390625 L 270.472656 139.339844 L 131.523438 139.339844 Z M 131.523438 0.390625 " clip-rule="nonzero"/></clipPath><clipPath id="7989f769a6"><path d="M 200.996094 0.390625 C 162.628906 0.390625 131.523438 31.496094 131.523438 69.867188 C 131.523438 108.234375 162.628906 139.339844 200.996094 139.339844 C 239.367188 139.339844 270.472656 108.234375 270.472656 69.867188 C 270.472656 31.496094 239.367188 0.390625 200.996094 0.390625 Z M 200.996094 0.390625 " clip-rule="nonzero"/></clipPath><clipPath id="f38cd10d62"><path d="M 79 310 L 169 310 L 169 369 L 79 369 Z M 79 310 " clip-rule="nonzero"/></clipPath><clipPath id="265b19c294"><path d="M 158.625 295.535156 L 177.601562 327.824219 L 89.132812 379.824219 L 70.15625 347.535156 Z M 158.625 295.535156 " clip-rule="nonzero"/></clipPath><clipPath id="15fba51ce9"><path d="M 158.625 295.535156 L 177.601562 327.824219 L 89.132812 379.824219 L 70.15625 347.535156 Z M 158.625 295.535156 " clip-rule="nonzero"/></clipPath><clipPath id="427aa4835c"><path d="M 233 310 L 323 310 L 323 369 L 233 369 Z M 233 310 " clip-rule="nonzero"/></clipPath><clipPath id="5d9fa773f5"><path d="M 224.425781 327.957031 L 243.230469 295.566406 L 331.976562 347.089844 L 313.171875 379.476562 Z M 224.425781 327.957031 " clip-rule="nonzero"/></clipPath><clipPath id="3fe2667086"><path d="M 224.425781 327.957031 L 243.230469 295.566406 L 331.976562 347.089844 L 313.171875 379.476562 Z M 224.425781 327.957031 " clip-rule="nonzero"/></clipPath><clipPath id="bf5260c1b0"><path d="M 131.523438 186.601562 L 270.472656 186.601562 L 270.472656 325.554688 L 131.523438 325.554688 Z M 131.523438 186.601562 " clip-rule="nonzero"/></clipPath><clipPath id="7fe1061393"><path d="M 200.996094 186.601562 C 162.628906 186.601562 131.523438 217.707031 131.523438 256.078125 C 131.523438 294.449219 162.628906 325.554688 200.996094 325.554688 C 239.367188 325.554688 270.472656 294.449219 270.472656 256.078125 C 270.472656 217.707031 239.367188 186.601562 200.996094 186.601562 Z M 200.996094 186.601562 " clip-rule="nonzero"/></clipPath><clipPath id="5dff64eb77"><path d="M 259 445 L 348 445 L 348 505 L 259 505 Z M 259 445 " clip-rule="nonzero"/></clipPath><clipPath id="d1d5c6c8bd"><path d="M 338.101562 431.082031 L 357.078125 463.367188 L 268.613281 515.367188 L 249.632812 483.082031 Z M 338.101562 431.082031 " clip-rule="nonzero"/></clipPath><clipPath id="b40f5b906a"><path d="M 338.101562 431.082031 L 357.078125 463.367188 L 268.613281 515.367188 L 249.632812 483.082031 Z M 338.101562 431.082031 " clip-rule="nonzero"/></clipPath><clipPath id="cf797cde5b"><path d="M 413 446 L 503 446 L 503 505 L 413 505 Z M 413 446 " clip-rule="nonzero"/></clipPath><clipPath id="cd1a13730b"><path d="M 403.90625 463.5 L 422.710938 431.113281 L 511.457031 482.632812 L 492.652344 515.023438 Z M 403.90625 463.5 " clip-rule="nonzero"/></clipPath><clipPath id="5016c3198a"><path d="M 403.90625 463.5 L 422.710938 431.113281 L 511.457031 482.632812 L 492.652344 515.023438 Z M 403.90625 463.5 " clip-rule="nonzero"/></clipPath><clipPath id="00fd873081"><path d="M 311.023438 334.152344 L 449.972656 334.152344 L 449.972656 473.101562 L 311.023438 473.101562 Z M 311.023438 334.152344 " clip-rule="nonzero"/></clipPath><clipPath id="a243e1ae5c"><path d="M 380.5 334.152344 C 342.128906 334.152344 311.023438 365.257812 311.023438 403.625 C 311.023438 441.996094 342.128906 473.101562 380.5 473.101562 C 418.867188 473.101562 449.972656 441.996094 449.972656 403.625 C 449.972656 365.257812 418.867188 334.152344 380.5 334.152344 Z M 380.5 334.152344 " clip-rule="nonzero"/></clipPath><clipPath id="585047330d"><path d="M 0 337.5625 L 77.71875 337.5625 L 77.71875 469.691406 L 0 469.691406 Z M 0 337.5625 " clip-rule="nonzero"/></clipPath><clipPath id="68af6afb9d"><path d="M 180.769531 473.101562 L 258.492188 473.101562 L 258.492188 605.230469 L 180.769531 605.230469 Z M 180.769531 473.101562 " clip-rule="nonzero"/></clipPath><clipPath id="c5d93e1bb4"><path d="M 502.40625 473.101562 L 580.128906 473.101562 L 580.128906 605.230469 L 502.40625 605.230469 Z M 502.40625 473.101562 " clip-rule="nonzero"/></clipPath></defs><g clip-path="url(#bdd99bae1c)"><path fill="#a6a6a6" d="M 218.347656 162.800781 C 217.222656 161.867188 215.554688 162.023438 214.625 163.148438 L 203.640625 176.398438 L 203.640625 87.019531 C 203.640625 85.558594 202.457031 84.375 200.996094 84.375 C 199.535156 84.375 198.351562 85.558594 198.351562 87.019531 L 198.351562 176.398438 L 187.371094 163.148438 C 186.4375 162.023438 184.769531 161.867188 183.644531 162.800781 C 182.519531 163.730469 182.367188 165.398438 183.296875 166.523438 L 198.960938 185.417969 C 199.464844 186.027344 200.210938 186.375 200.996094 186.375 C 201.785156 186.375 202.53125 186.027344 203.03125 185.417969 L 218.695312 166.523438 C 219.628906 165.398438 219.472656 163.730469 218.347656 162.800781 " fill-opacity="1" fill-rule="nonzero"/></g><g clip-path="url(#176c1d425c)"><g clip-path="url(#7989f769a6)"><path fill="#e9ffe6" d="M 131.523438 0.390625 L 270.472656 0.390625 L 270.472656 139.339844 L 131.523438 139.339844 Z M 131.523438 0.390625 " fill-opacity="1" fill-rule="nonzero"/></g></g><g fill="#000000" fill-opacity="1"><g transform="translate(153.887436, 75.293831)"><g><path d="M 2.71875 0 C 2.269531 0 1.929688 -0.125 1.703125 -0.375 C 1.472656 -0.625 1.359375 -0.941406 1.359375 -1.328125 L 1.359375 -11.859375 L 2.640625 -11.859375 L 2.640625 -1.125 L 3.859375 -1.125 L 3.859375 0 Z M 2.71875 0 "/></g></g></g><g fill="#000000" fill-opacity="1"><g transform="translate(158.245513, 75.293831)"><g><path d="M 4.46875 0.1875 C 3.90625 0.1875 3.394531 0.0859375 2.9375 -0.109375 C 2.488281 -0.316406 2.097656 -0.609375 1.765625 -0.984375 C 1.441406 -1.367188 1.191406 -1.820312 1.015625 -2.34375 C 0.835938 -2.875 0.75 -3.472656 0.75 -4.140625 C 0.75 -4.785156 0.835938 -5.375 1.015625 -5.90625 C 1.191406 -6.445312 1.441406 -6.90625 1.765625 -7.28125 C 2.097656 -7.664062 2.488281 -7.957031 2.9375 -8.15625 C 3.394531 -8.363281 3.90625 -8.46875 4.46875 -8.46875 C 5.03125 -8.46875 5.53125 -8.363281 5.96875 -8.15625 C 6.40625 -7.957031 6.773438 -7.675781 7.078125 -7.3125 C 7.390625 -6.957031 7.628906 -6.535156 7.796875 -6.046875 C 7.960938 -5.554688 8.046875 -5.015625 8.046875 -4.421875 L 8.046875 -3.8125 L 2.09375 -3.8125 L 2.09375 -3.4375 C 2.09375 -3.082031 2.148438 -2.75 2.265625 -2.4375 C 2.378906 -2.132812 2.539062 -1.867188 2.75 -1.640625 C 2.957031 -1.421875 3.210938 -1.25 3.515625 -1.125 C 3.816406 -1 4.160156 -0.9375 4.546875 -0.9375 C 5.078125 -0.9375 5.535156 -1.054688 5.921875 -1.296875 C 6.316406 -1.546875 6.617188 -1.898438 6.828125 -2.359375 L 7.75 -1.703125 C 7.476562 -1.128906 7.054688 -0.671875 6.484375 -0.328125 C 5.921875 0.015625 5.25 0.1875 4.46875 0.1875 Z M 4.46875 -7.390625 C 4.113281 -7.390625 3.789062 -7.328125 3.5 -7.203125 C 3.21875 -7.078125 2.972656 -6.898438 2.765625 -6.671875 C 2.554688 -6.453125 2.390625 -6.191406 2.265625 -5.890625 C 2.148438 -5.585938 2.09375 -5.253906 2.09375 -4.890625 L 2.09375 -4.78125 L 6.671875 -4.78125 L 6.671875 -4.953125 C 6.671875 -5.691406 6.46875 -6.28125 6.0625 -6.71875 C 5.664062 -7.164062 5.132812 -7.390625 4.46875 -7.390625 Z M 4.46875 -7.390625 "/></g></g></g><g fill="#000000" fill-opacity="1"><g transform="translate(167.041776, 75.293831)"><g><path d="M 3.1875 0 C 2.738281 0 2.398438 -0.125 2.171875 -0.375 C 1.941406 -0.625 1.828125 -0.953125 1.828125 -1.359375 L 1.828125 -7.15625 L 0.46875 -7.15625 L 0.46875 -8.265625 L 1.234375 -8.265625 C 1.515625 -8.265625 1.703125 -8.320312 1.796875 -8.4375 C 1.898438 -8.550781 1.953125 -8.75 1.953125 -9.03125 L 1.953125 -10.5625 L 3.109375 -10.5625 L 3.109375 -8.265625 L 4.921875 -8.265625 L 4.921875 -7.15625 L 3.109375 -7.15625 L 3.109375 -1.125 L 4.796875 -1.125 L 4.796875 0 Z M 3.1875 0 "/></g></g></g><g fill="#000000" fill-opacity="1"><g transform="translate(172.665619, 75.293831)"><g><path d="M 4.640625 0.1875 C 3.722656 0.1875 2.941406 0.015625 2.296875 -0.328125 C 1.660156 -0.671875 1.117188 -1.148438 0.671875 -1.765625 L 1.671875 -2.59375 C 2.066406 -2.070312 2.503906 -1.675781 2.984375 -1.40625 C 3.460938 -1.132812 4.03125 -1 4.6875 -1 C 5.488281 -1 6.097656 -1.1875 6.515625 -1.5625 C 6.941406 -1.945312 7.15625 -2.460938 7.15625 -3.109375 C 7.15625 -3.640625 6.992188 -4.050781 6.671875 -4.34375 C 6.347656 -4.632812 5.816406 -4.863281 5.078125 -5.03125 L 4.171875 -5.25 C 3.140625 -5.476562 2.351562 -5.828125 1.8125 -6.296875 C 1.28125 -6.773438 1.015625 -7.445312 1.015625 -8.3125 C 1.015625 -8.8125 1.101562 -9.253906 1.28125 -9.640625 C 1.46875 -10.023438 1.722656 -10.34375 2.046875 -10.59375 C 2.367188 -10.851562 2.753906 -11.046875 3.203125 -11.171875 C 3.660156 -11.304688 4.164062 -11.375 4.71875 -11.375 C 5.5625 -11.375 6.285156 -11.21875 6.890625 -10.90625 C 7.492188 -10.601562 8.003906 -10.148438 8.421875 -9.546875 L 7.40625 -8.8125 C 7.09375 -9.238281 6.71875 -9.578125 6.28125 -9.828125 C 5.84375 -10.078125 5.300781 -10.203125 4.65625 -10.203125 C 3.9375 -10.203125 3.367188 -10.046875 2.953125 -9.734375 C 2.546875 -9.429688 2.34375 -8.976562 2.34375 -8.375 C 2.34375 -7.832031 2.515625 -7.425781 2.859375 -7.15625 C 3.203125 -6.882812 3.726562 -6.671875 4.4375 -6.515625 L 5.359375 -6.296875 C 6.453125 -6.054688 7.242188 -5.679688 7.734375 -5.171875 C 8.234375 -4.671875 8.484375 -4.003906 8.484375 -3.171875 C 8.484375 -2.660156 8.394531 -2.195312 8.21875 -1.78125 C 8.039062 -1.363281 7.785156 -1.007812 7.453125 -0.71875 C 7.117188 -0.425781 6.710938 -0.203125 6.234375 -0.046875 C 5.765625 0.109375 5.234375 0.1875 4.640625 0.1875 Z M 4.640625 0.1875 "/></g></g></g><g fill="#000000" fill-opacity="1"><g transform="translate(181.974591, 75.293831)"><g><path d="M 3.1875 0 C 2.738281 0 2.398438 -0.125 2.171875 -0.375 C 1.941406 -0.625 1.828125 -0.953125 1.828125 -1.359375 L 1.828125 -7.15625 L 0.46875 -7.15625 L 0.46875 -8.265625 L 1.234375 -8.265625 C 1.515625 -8.265625 1.703125 -8.320312 1.796875 -8.4375 C 1.898438 -8.550781 1.953125 -8.75 1.953125 -9.03125 L 1.953125 -10.5625 L 3.109375 -10.5625 L 3.109375 -8.265625 L 4.921875 -8.265625 L 4.921875 -7.15625 L 3.109375 -7.15625 L 3.109375 -1.125 L 4.796875 -1.125 L 4.796875 0 Z M 3.1875 0 "/></g></g></g><g fill="#000000" fill-opacity="1"><g transform="translate(187.598434, 75.293831)"><g><path d="M 7.375 0 C 6.894531 0 6.550781 -0.125 6.34375 -0.375 C 6.132812 -0.632812 6.003906 -0.957031 5.953125 -1.34375 L 5.875 -1.34375 C 5.6875 -0.832031 5.382812 -0.445312 4.96875 -0.1875 C 4.550781 0.0625 4.054688 0.1875 3.484375 0.1875 C 2.609375 0.1875 1.925781 -0.0351562 1.4375 -0.484375 C 0.945312 -0.929688 0.703125 -1.539062 0.703125 -2.3125 C 0.703125 -3.09375 0.988281 -3.691406 1.5625 -4.109375 C 2.132812 -4.523438 3.023438 -4.734375 4.234375 -4.734375 L 5.875 -4.734375 L 5.875 -5.546875 C 5.875 -6.128906 5.710938 -6.578125 5.390625 -6.890625 C 5.066406 -7.203125 4.570312 -7.359375 3.90625 -7.359375 C 3.40625 -7.359375 2.984375 -7.242188 2.640625 -7.015625 C 2.304688 -6.796875 2.03125 -6.5 1.8125 -6.125 L 1.046875 -6.84375 C 1.265625 -7.289062 1.617188 -7.671875 2.109375 -7.984375 C 2.609375 -8.304688 3.226562 -8.46875 3.96875 -8.46875 C 4.976562 -8.46875 5.757812 -8.21875 6.3125 -7.71875 C 6.875 -7.226562 7.15625 -6.546875 7.15625 -5.671875 L 7.15625 -1.125 L 8.09375 -1.125 L 8.09375 0 Z M 3.6875 -0.890625 C 4.007812 -0.890625 4.300781 -0.925781 4.5625 -1 C 4.832031 -1.082031 5.0625 -1.191406 5.25 -1.328125 C 5.445312 -1.460938 5.597656 -1.617188 5.703125 -1.796875 C 5.816406 -1.984375 5.875 -2.1875 5.875 -2.40625 L 5.875 -3.765625 L 4.171875 -3.765625 C 3.429688 -3.765625 2.890625 -3.65625 2.546875 -3.4375 C 2.210938 -3.226562 2.046875 -2.921875 2.046875 -2.515625 L 2.046875 -2.1875 C 2.046875 -1.78125 2.191406 -1.460938 2.484375 -1.234375 C 2.785156 -1.003906 3.1875 -0.890625 3.6875 -0.890625 Z M 3.6875 -0.890625 "/></g></g></g><g fill="#000000" fill-opacity="1"><g transform="translate(196.15436, 75.293831)"><g><path d="M 3.1875 0 C 2.738281 0 2.398438 -0.125 2.171875 -0.375 C 1.941406 -0.625 1.828125 -0.953125 1.828125 -1.359375 L 1.828125 -7.15625 L 0.46875 -7.15625 L 0.46875 -8.265625 L 1.234375 -8.265625 C 1.515625 -8.265625 1.703125 -8.320312 1.796875 -8.4375 C 1.898438 -8.550781 1.953125 -8.75 1.953125 -9.03125 L 1.953125 -10.5625 L 3.109375 -10.5625 L 3.109375 -8.265625 L 4.921875 -8.265625 L 4.921875 -7.15625 L 3.109375 -7.15625 L 3.109375 -1.125 L 4.796875 -1.125 L 4.796875 0 Z M 3.1875 0 "/></g></g></g><g fill="#000000" fill-opacity="1"><g transform="translate(201.778203, 75.293831)"><g><path d="M 4.46875 0.1875 C 3.90625 0.1875 3.394531 0.0859375 2.9375 -0.109375 C 2.488281 -0.316406 2.097656 -0.609375 1.765625 -0.984375 C 1.441406 -1.367188 1.191406 -1.820312 1.015625 -2.34375 C 0.835938 -2.875 0.75 -3.472656 0.75 -4.140625 C 0.75 -4.785156 0.835938 -5.375 1.015625 -5.90625 C 1.191406 -6.445312 1.441406 -6.90625 1.765625 -7.28125 C 2.097656 -7.664062 2.488281 -7.957031 2.9375 -8.15625 C 3.394531 -8.363281 3.90625 -8.46875 4.46875 -8.46875 C 5.03125 -8.46875 5.53125 -8.363281 5.96875 -8.15625 C 6.40625 -7.957031 6.773438 -7.675781 7.078125 -7.3125 C 7.390625 -6.957031 7.628906 -6.535156 7.796875 -6.046875 C 7.960938 -5.554688 8.046875 -5.015625 8.046875 -4.421875 L 8.046875 -3.8125 L 2.09375 -3.8125 L 2.09375 -3.4375 C 2.09375 -3.082031 2.148438 -2.75 2.265625 -2.4375 C 2.378906 -2.132812 2.539062 -1.867188 2.75 -1.640625 C 2.957031 -1.421875 3.210938 -1.25 3.515625 -1.125 C 3.816406 -1 4.160156 -0.9375 4.546875 -0.9375 C 5.078125 -0.9375 5.535156 -1.054688 5.921875 -1.296875 C 6.316406 -1.546875 6.617188 -1.898438 6.828125 -2.359375 L 7.75 -1.703125 C 7.476562 -1.128906 7.054688 -0.671875 6.484375 -0.328125 C 5.921875 0.015625 5.25 0.1875 4.46875 0.1875 Z M 4.46875 -7.390625 C 4.113281 -7.390625 3.789062 -7.328125 3.5 -7.203125 C 3.21875 -7.078125 2.972656 -6.898438 2.765625 -6.671875 C 2.554688 -6.453125 2.390625 -6.191406 2.265625 -5.890625 C 2.148438 -5.585938 2.09375 -5.253906 2.09375 -4.890625 L 2.09375 -4.78125 L 6.671875 -4.78125 L 6.671875 -4.953125 C 6.671875 -5.691406 6.46875 -6.28125 6.0625 -6.71875 C 5.664062 -7.164062 5.132812 -7.390625 4.46875 -7.390625 Z M 4.46875 -7.390625 "/></g></g></g><g fill="#000000" fill-opacity="1"><g transform="translate(210.574466, 75.293831)"><g><path d="M 1.359375 0 L 1.359375 -8.265625 L 2.640625 -8.265625 L 2.640625 -6.921875 L 2.703125 -6.921875 C 2.804688 -7.140625 2.914062 -7.34375 3.03125 -7.53125 C 3.15625 -7.71875 3.304688 -7.878906 3.484375 -8.015625 C 3.660156 -8.148438 3.863281 -8.257812 4.09375 -8.34375 C 4.332031 -8.425781 4.613281 -8.46875 4.9375 -8.46875 C 5.476562 -8.46875 5.976562 -8.332031 6.4375 -8.0625 C 6.90625 -7.800781 7.25 -7.375 7.46875 -6.78125 L 7.5 -6.78125 C 7.65625 -7.226562 7.9375 -7.617188 8.34375 -7.953125 C 8.757812 -8.296875 9.316406 -8.46875 10.015625 -8.46875 C 10.859375 -8.46875 11.519531 -8.191406 12 -7.640625 C 12.476562 -7.085938 12.71875 -6.3125 12.71875 -5.3125 L 12.71875 0 L 11.4375 0 L 11.4375 -5.078125 C 11.4375 -5.816406 11.289062 -6.375 11 -6.75 C 10.707031 -7.125 10.25 -7.3125 9.625 -7.3125 C 9.363281 -7.3125 9.117188 -7.28125 8.890625 -7.21875 C 8.660156 -7.15625 8.453125 -7.054688 8.265625 -6.921875 C 8.085938 -6.796875 7.941406 -6.632812 7.828125 -6.4375 C 7.722656 -6.238281 7.671875 -6.003906 7.671875 -5.734375 L 7.671875 0 L 6.390625 0 L 6.390625 -5.078125 C 6.390625 -5.816406 6.242188 -6.375 5.953125 -6.75 C 5.671875 -7.125 5.222656 -7.3125 4.609375 -7.3125 C 4.359375 -7.3125 4.113281 -7.28125 3.875 -7.21875 C 3.644531 -7.15625 3.4375 -7.054688 3.25 -6.921875 C 3.070312 -6.796875 2.925781 -6.632812 2.8125 -6.4375 C 2.695312 -6.238281 2.640625 -6.003906 2.640625 -5.734375 L 2.640625 0 Z M 1.359375 0 "/></g></g></g><g fill="#000000" fill-opacity="1"><g transform="translate(224.56196, 75.293831)"><g><path d="M 4.46875 0.1875 C 3.90625 0.1875 3.394531 0.0859375 2.9375 -0.109375 C 2.488281 -0.316406 2.097656 -0.609375 1.765625 -0.984375 C 1.441406 -1.367188 1.191406 -1.820312 1.015625 -2.34375 C 0.835938 -2.875 0.75 -3.472656 0.75 -4.140625 C 0.75 -4.785156 0.835938 -5.375 1.015625 -5.90625 C 1.191406 -6.445312 1.441406 -6.90625 1.765625 -7.28125 C 2.097656 -7.664062 2.488281 -7.957031 2.9375 -8.15625 C 3.394531 -8.363281 3.90625 -8.46875 4.46875 -8.46875 C 5.03125 -8.46875 5.53125 -8.363281 5.96875 -8.15625 C 6.40625 -7.957031 6.773438 -7.675781 7.078125 -7.3125 C 7.390625 -6.957031 7.628906 -6.535156 7.796875 -6.046875 C 7.960938 -5.554688 8.046875 -5.015625 8.046875 -4.421875 L 8.046875 -3.8125 L 2.09375 -3.8125 L 2.09375 -3.4375 C 2.09375 -3.082031 2.148438 -2.75 2.265625 -2.4375 C 2.378906 -2.132812 2.539062 -1.867188 2.75 -1.640625 C 2.957031 -1.421875 3.210938 -1.25 3.515625 -1.125 C 3.816406 -1 4.160156 -0.9375 4.546875 -0.9375 C 5.078125 -0.9375 5.535156 -1.054688 5.921875 -1.296875 C 6.316406 -1.546875 6.617188 -1.898438 6.828125 -2.359375 L 7.75 -1.703125 C 7.476562 -1.128906 7.054688 -0.671875 6.484375 -0.328125 C 5.921875 0.015625 5.25 0.1875 4.46875 0.1875 Z M 4.46875 -7.390625 C 4.113281 -7.390625 3.789062 -7.328125 3.5 -7.203125 C 3.21875 -7.078125 2.972656 -6.898438 2.765625 -6.671875 C 2.554688 -6.453125 2.390625 -6.191406 2.265625 -5.890625 C 2.148438 -5.585938 2.09375 -5.253906 2.09375 -4.890625 L 2.09375 -4.78125 L 6.671875 -4.78125 L 6.671875 -4.953125 C 6.671875 -5.691406 6.46875 -6.28125 6.0625 -6.71875 C 5.664062 -7.164062 5.132812 -7.390625 4.46875 -7.390625 Z M 4.46875 -7.390625 "/></g></g></g><g fill="#000000" fill-opacity="1"><g transform="translate(233.358223, 75.293831)"><g><path d="M 1.359375 0 L 1.359375 -8.265625 L 2.640625 -8.265625 L 2.640625 -6.921875 L 2.703125 -6.921875 C 2.910156 -7.390625 3.195312 -7.765625 3.5625 -8.046875 C 3.9375 -8.328125 4.429688 -8.46875 5.046875 -8.46875 C 5.898438 -8.46875 6.578125 -8.191406 7.078125 -7.640625 C 7.578125 -7.085938 7.828125 -6.3125 7.828125 -5.3125 L 7.828125 0 L 6.546875 0 L 6.546875 -5.078125 C 6.546875 -6.566406 5.921875 -7.3125 4.671875 -7.3125 C 4.410156 -7.3125 4.160156 -7.28125 3.921875 -7.21875 C 3.679688 -7.15625 3.460938 -7.054688 3.265625 -6.921875 C 3.078125 -6.796875 2.925781 -6.632812 2.8125 -6.4375 C 2.695312 -6.238281 2.640625 -6.003906 2.640625 -5.734375 L 2.640625 0 Z M 1.359375 0 "/></g></g></g><g fill="#000000" fill-opacity="1"><g transform="translate(242.458907, 75.293831)"><g><path d="M 3.1875 0 C 2.738281 0 2.398438 -0.125 2.171875 -0.375 C 1.941406 -0.625 1.828125 -0.953125 1.828125 -1.359375 L 1.828125 -7.15625 L 0.46875 -7.15625 L 0.46875 -8.265625 L 1.234375 -8.265625 C 1.515625 -8.265625 1.703125 -8.320312 1.796875 -8.4375 C 1.898438 -8.550781 1.953125 -8.75 1.953125 -9.03125 L 1.953125 -10.5625 L 3.109375 -10.5625 L 3.109375 -8.265625 L 4.921875 -8.265625 L 4.921875 -7.15625 L 3.109375 -7.15625 L 3.109375 -1.125 L 4.796875 -1.125 L 4.796875 0 Z M 3.1875 0 "/></g></g></g><g clip-path="url(#f38cd10d62)"><g clip-path="url(#265b19c294)"><g clip-path="url(#15fba51ce9)"><path fill="#a6a6a6" d="M 109.058594 366.410156 C 109.289062 364.964844 108.3125 363.609375 106.871094 363.375 L 89.882812 360.621094 L 166.933594 315.332031 C 168.195312 314.589844 168.613281 312.96875 167.875 311.710938 C 167.132812 310.453125 165.515625 310.03125 164.253906 310.769531 L 87.203125 356.0625 L 93.058594 339.878906 C 93.554688 338.507812 92.847656 336.988281 91.472656 336.492188 C 90.097656 335.996094 88.582031 336.707031 88.085938 338.078125 L 79.730469 361.15625 C 79.464844 361.898438 79.539062 362.71875 79.9375 363.398438 C 80.335938 364.074219 81.019531 364.542969 81.796875 364.667969 L 106.023438 368.59375 C 107.464844 368.828125 108.824219 367.851562 109.058594 366.410156 " fill-opacity="1" fill-rule="nonzero"/></g></g></g><g clip-path="url(#427aa4835c)"><g clip-path="url(#5d9fa773f5)"><g clip-path="url(#3fe2667086)"><path fill="#a6a6a6" d="M 310.507812 336.324219 C 309.136719 336.828125 308.433594 338.347656 308.9375 339.71875 L 314.882812 355.867188 L 237.585938 310.992188 C 236.324219 310.261719 234.707031 310.6875 233.972656 311.953125 C 233.238281 313.214844 233.667969 314.835938 234.929688 315.566406 L 312.226562 360.441406 L 295.253906 363.289062 C 293.816406 363.527344 292.84375 364.894531 293.085938 366.332031 C 293.324219 367.773438 294.691406 368.746094 296.128906 368.503906 L 320.335938 364.445312 C 321.113281 364.316406 321.789062 363.847656 322.1875 363.164062 C 322.582031 362.484375 322.652344 361.664062 322.378906 360.925781 L 313.902344 337.890625 C 313.398438 336.519531 311.878906 335.816406 310.507812 336.324219 " fill-opacity="1" fill-rule="nonzero"/></g></g></g><g clip-path="url(#bf5260c1b0)"><g clip-path="url(#7fe1061393)"><path fill="#e9ffe6" d="M 131.523438 186.601562 L 270.472656 186.601562 L 270.472656 325.554688 L 131.523438 325.554688 Z M 131.523438 186.601562 " fill-opacity="1" fill-rule="nonzero"/></g></g><g fill="#000000" fill-opacity="1"><g transform="translate(159.376447, 261.506287)"><g><path d="M 7.375 0 C 6.894531 0 6.550781 -0.125 6.34375 -0.375 C 6.132812 -0.632812 6.003906 -0.957031 5.953125 -1.34375 L 5.875 -1.34375 C 5.6875 -0.832031 5.382812 -0.445312 4.96875 -0.1875 C 4.550781 0.0625 4.054688 0.1875 3.484375 0.1875 C 2.609375 0.1875 1.925781 -0.0351562 1.4375 -0.484375 C 0.945312 -0.929688 0.703125 -1.539062 0.703125 -2.3125 C 0.703125 -3.09375 0.988281 -3.691406 1.5625 -4.109375 C 2.132812 -4.523438 3.023438 -4.734375 4.234375 -4.734375 L 5.875 -4.734375 L 5.875 -5.546875 C 5.875 -6.128906 5.710938 -6.578125 5.390625 -6.890625 C 5.066406 -7.203125 4.570312 -7.359375 3.90625 -7.359375 C 3.40625 -7.359375 2.984375 -7.242188 2.640625 -7.015625 C 2.304688 -6.796875 2.03125 -6.5 1.8125 -6.125 L 1.046875 -6.84375 C 1.265625 -7.289062 1.617188 -7.671875 2.109375 -7.984375 C 2.609375 -8.304688 3.226562 -8.46875 3.96875 -8.46875 C 4.976562 -8.46875 5.757812 -8.21875 6.3125 -7.71875 C 6.875 -7.226562 7.15625 -6.546875 7.15625 -5.671875 L 7.15625 -1.125 L 8.09375 -1.125 L 8.09375 0 Z M 3.6875 -0.890625 C 4.007812 -0.890625 4.300781 -0.925781 4.5625 -1 C 4.832031 -1.082031 5.0625 -1.191406 5.25 -1.328125 C 5.445312 -1.460938 5.597656 -1.617188 5.703125 -1.796875 C 5.816406 -1.984375 5.875 -2.1875 5.875 -2.40625 L 5.875 -3.765625 L 4.171875 -3.765625 C 3.429688 -3.765625 2.890625 -3.65625 2.546875 -3.4375 C 2.210938 -3.226562 2.046875 -2.921875 2.046875 -2.515625 L 2.046875 -2.1875 C 2.046875 -1.78125 2.191406 -1.460938 2.484375 -1.234375 C 2.785156 -1.003906 3.1875 -0.890625 3.6875 -0.890625 Z M 3.6875 -0.890625 "/></g></g></g><g fill="#000000" fill-opacity="1"><g transform="translate(167.932373, 261.506287)"><g><path d="M 3.84375 0.1875 C 3.070312 0.1875 2.425781 0.0390625 1.90625 -0.25 C 1.394531 -0.539062 0.953125 -0.929688 0.578125 -1.421875 L 1.484375 -2.171875 C 1.804688 -1.765625 2.164062 -1.445312 2.5625 -1.21875 C 2.957031 -1 3.414062 -0.890625 3.9375 -0.890625 C 4.488281 -0.890625 4.914062 -1.007812 5.21875 -1.25 C 5.519531 -1.488281 5.671875 -1.820312 5.671875 -2.25 C 5.671875 -2.5625 5.566406 -2.832031 5.359375 -3.0625 C 5.148438 -3.300781 4.773438 -3.460938 4.234375 -3.546875 L 3.578125 -3.640625 C 3.191406 -3.691406 2.835938 -3.773438 2.515625 -3.890625 C 2.191406 -4.003906 1.910156 -4.148438 1.671875 -4.328125 C 1.429688 -4.515625 1.242188 -4.75 1.109375 -5.03125 C 0.972656 -5.3125 0.90625 -5.644531 0.90625 -6.03125 C 0.90625 -6.4375 0.976562 -6.789062 1.125 -7.09375 C 1.28125 -7.394531 1.488281 -7.644531 1.75 -7.84375 C 2.007812 -8.050781 2.320312 -8.207031 2.6875 -8.3125 C 3.050781 -8.414062 3.441406 -8.46875 3.859375 -8.46875 C 4.535156 -8.46875 5.097656 -8.347656 5.546875 -8.109375 C 6.003906 -7.878906 6.40625 -7.554688 6.75 -7.140625 L 5.90625 -6.359375 C 5.71875 -6.617188 5.445312 -6.851562 5.09375 -7.0625 C 4.738281 -7.269531 4.296875 -7.375 3.765625 -7.375 C 3.234375 -7.375 2.828125 -7.257812 2.546875 -7.03125 C 2.273438 -6.800781 2.140625 -6.488281 2.140625 -6.09375 C 2.140625 -5.6875 2.273438 -5.390625 2.546875 -5.203125 C 2.828125 -5.023438 3.222656 -4.894531 3.734375 -4.8125 L 4.375 -4.71875 C 5.289062 -4.570312 5.941406 -4.300781 6.328125 -3.90625 C 6.710938 -3.519531 6.90625 -3.015625 6.90625 -2.390625 C 6.90625 -1.585938 6.632812 -0.957031 6.09375 -0.5 C 5.550781 -0.0390625 4.800781 0.1875 3.84375 0.1875 Z M 3.84375 0.1875 "/></g></g></g><g fill="#000000" fill-opacity="1"><g transform="translate(175.735255, 261.506287)"><g><path d="M 3.84375 0.1875 C 3.070312 0.1875 2.425781 0.0390625 1.90625 -0.25 C 1.394531 -0.539062 0.953125 -0.929688 0.578125 -1.421875 L 1.484375 -2.171875 C 1.804688 -1.765625 2.164062 -1.445312 2.5625 -1.21875 C 2.957031 -1 3.414062 -0.890625 3.9375 -0.890625 C 4.488281 -0.890625 4.914062 -1.007812 5.21875 -1.25 C 5.519531 -1.488281 5.671875 -1.820312 5.671875 -2.25 C 5.671875 -2.5625 5.566406 -2.832031 5.359375 -3.0625 C 5.148438 -3.300781 4.773438 -3.460938 4.234375 -3.546875 L 3.578125 -3.640625 C 3.191406 -3.691406 2.835938 -3.773438 2.515625 -3.890625 C 2.191406 -4.003906 1.910156 -4.148438 1.671875 -4.328125 C 1.429688 -4.515625 1.242188 -4.75 1.109375 -5.03125 C 0.972656 -5.3125 0.90625 -5.644531 0.90625 -6.03125 C 0.90625 -6.4375 0.976562 -6.789062 1.125 -7.09375 C 1.28125 -7.394531 1.488281 -7.644531 1.75 -7.84375 C 2.007812 -8.050781 2.320312 -8.207031 2.6875 -8.3125 C 3.050781 -8.414062 3.441406 -8.46875 3.859375 -8.46875 C 4.535156 -8.46875 5.097656 -8.347656 5.546875 -8.109375 C 6.003906 -7.878906 6.40625 -7.554688 6.75 -7.140625 L 5.90625 -6.359375 C 5.71875 -6.617188 5.445312 -6.851562 5.09375 -7.0625 C 4.738281 -7.269531 4.296875 -7.375 3.765625 -7.375 C 3.234375 -7.375 2.828125 -7.257812 2.546875 -7.03125 C 2.273438 -6.800781 2.140625 -6.488281 2.140625 -6.09375 C 2.140625 -5.6875 2.273438 -5.390625 2.546875 -5.203125 C 2.828125 -5.023438 3.222656 -4.894531 3.734375 -4.8125 L 4.375 -4.71875 C 5.289062 -4.570312 5.941406 -4.300781 6.328125 -3.90625 C 6.710938 -3.519531 6.90625 -3.015625 6.90625 -2.390625 C 6.90625 -1.585938 6.632812 -0.957031 6.09375 -0.5 C 5.550781 -0.0390625 4.800781 0.1875 3.84375 0.1875 Z M 3.84375 0.1875 "/></g></g></g><g fill="#000000" fill-opacity="1"><g transform="translate(183.538136, 261.506287)"><g><path d="M 2 -10.21875 C 1.726562 -10.21875 1.53125 -10.28125 1.40625 -10.40625 C 1.28125 -10.539062 1.21875 -10.71875 1.21875 -10.9375 L 1.21875 -11.140625 C 1.21875 -11.359375 1.28125 -11.53125 1.40625 -11.65625 C 1.53125 -11.789062 1.726562 -11.859375 2 -11.859375 C 2.28125 -11.859375 2.484375 -11.789062 2.609375 -11.65625 C 2.734375 -11.53125 2.796875 -11.359375 2.796875 -11.140625 L 2.796875 -10.9375 C 2.796875 -10.71875 2.734375 -10.539062 2.609375 -10.40625 C 2.484375 -10.28125 2.28125 -10.21875 2 -10.21875 Z M 1.359375 -8.265625 L 2.640625 -8.265625 L 2.640625 0 L 1.359375 0 Z M 1.359375 -8.265625 "/></g></g></g><g fill="#000000" fill-opacity="1"><g transform="translate(187.543721, 261.506287)"><g><path d="M 8.34375 0.90625 C 8.34375 1.769531 8.003906 2.398438 7.328125 2.796875 C 6.660156 3.203125 5.660156 3.40625 4.328125 3.40625 C 3.035156 3.40625 2.101562 3.226562 1.53125 2.875 C 0.96875 2.519531 0.6875 2.015625 0.6875 1.359375 C 0.6875 0.910156 0.800781 0.5625 1.03125 0.3125 C 1.269531 0.0625 1.59375 -0.117188 2 -0.234375 L 2 -0.421875 C 1.507812 -0.648438 1.265625 -1.035156 1.265625 -1.578125 C 1.265625 -1.992188 1.394531 -2.3125 1.65625 -2.53125 C 1.925781 -2.75 2.269531 -2.910156 2.6875 -3.015625 L 2.6875 -3.078125 C 2.195312 -3.316406 1.816406 -3.65625 1.546875 -4.09375 C 1.273438 -4.53125 1.140625 -5.035156 1.140625 -5.609375 C 1.140625 -6.023438 1.210938 -6.410156 1.359375 -6.765625 C 1.515625 -7.117188 1.726562 -7.421875 2 -7.671875 C 2.269531 -7.921875 2.59375 -8.113281 2.96875 -8.25 C 3.351562 -8.394531 3.78125 -8.46875 4.25 -8.46875 C 4.832031 -8.46875 5.351562 -8.359375 5.8125 -8.140625 L 5.8125 -8.28125 C 5.8125 -8.601562 5.882812 -8.867188 6.03125 -9.078125 C 6.1875 -9.285156 6.4375 -9.390625 6.78125 -9.390625 L 8.015625 -9.390625 L 8.015625 -8.265625 L 6.4375 -8.265625 L 6.4375 -7.75 C 6.738281 -7.488281 6.972656 -7.175781 7.140625 -6.8125 C 7.304688 -6.457031 7.390625 -6.054688 7.390625 -5.609375 C 7.390625 -5.191406 7.3125 -4.804688 7.15625 -4.453125 C 7.007812 -4.097656 6.800781 -3.796875 6.53125 -3.546875 C 6.257812 -3.296875 5.929688 -3.097656 5.546875 -2.953125 C 5.160156 -2.816406 4.734375 -2.75 4.265625 -2.75 C 3.992188 -2.75 3.726562 -2.78125 3.46875 -2.84375 C 3.1875 -2.757812 2.929688 -2.644531 2.703125 -2.5 C 2.484375 -2.363281 2.375 -2.164062 2.375 -1.90625 C 2.375 -1.65625 2.488281 -1.488281 2.71875 -1.40625 C 2.957031 -1.320312 3.265625 -1.28125 3.640625 -1.28125 L 5.40625 -1.28125 C 6.425781 -1.28125 7.171875 -1.082031 7.640625 -0.6875 C 8.109375 -0.300781 8.34375 0.226562 8.34375 0.90625 Z M 7.140625 1.015625 C 7.140625 0.679688 7.007812 0.414062 6.75 0.21875 C 6.5 0.0195312 6.054688 -0.078125 5.421875 -0.078125 L 2.65625 -0.078125 C 2.144531 0.148438 1.890625 0.523438 1.890625 1.046875 C 1.890625 1.410156 2.023438 1.71875 2.296875 1.96875 C 2.566406 2.226562 3.03125 2.359375 3.6875 2.359375 L 4.875 2.359375 C 5.59375 2.359375 6.148438 2.242188 6.546875 2.015625 C 6.941406 1.796875 7.140625 1.460938 7.140625 1.015625 Z M 4.265625 -3.78125 C 4.804688 -3.78125 5.238281 -3.910156 5.5625 -4.171875 C 5.882812 -4.429688 6.046875 -4.835938 6.046875 -5.390625 L 6.046875 -5.828125 C 6.046875 -6.378906 5.882812 -6.785156 5.5625 -7.046875 C 5.238281 -7.304688 4.804688 -7.4375 4.265625 -7.4375 C 3.722656 -7.4375 3.289062 -7.304688 2.96875 -7.046875 C 2.644531 -6.785156 2.484375 -6.378906 2.484375 -5.828125 L 2.484375 -5.390625 C 2.484375 -4.835938 2.644531 -4.429688 2.96875 -4.171875 C 3.289062 -3.910156 3.722656 -3.78125 4.265625 -3.78125 Z M 4.265625 -3.78125 "/></g></g></g><g fill="#000000" fill-opacity="1"><g transform="translate(196.003516, 261.506287)"><g><path d="M 1.359375 0 L 1.359375 -8.265625 L 2.640625 -8.265625 L 2.640625 -6.921875 L 2.703125 -6.921875 C 2.910156 -7.390625 3.195312 -7.765625 3.5625 -8.046875 C 3.9375 -8.328125 4.429688 -8.46875 5.046875 -8.46875 C 5.898438 -8.46875 6.578125 -8.191406 7.078125 -7.640625 C 7.578125 -7.085938 7.828125 -6.3125 7.828125 -5.3125 L 7.828125 0 L 6.546875 0 L 6.546875 -5.078125 C 6.546875 -6.566406 5.921875 -7.3125 4.671875 -7.3125 C 4.410156 -7.3125 4.160156 -7.28125 3.921875 -7.21875 C 3.679688 -7.15625 3.460938 -7.054688 3.265625 -6.921875 C 3.078125 -6.796875 2.925781 -6.632812 2.8125 -6.4375 C 2.695312 -6.238281 2.640625 -6.003906 2.640625 -5.734375 L 2.640625 0 Z M 1.359375 0 "/></g></g></g><g fill="#000000" fill-opacity="1"><g transform="translate(205.104199, 261.506287)"><g><path d="M 1.359375 0 L 1.359375 -8.265625 L 2.640625 -8.265625 L 2.640625 -6.921875 L 2.703125 -6.921875 C 2.804688 -7.140625 2.914062 -7.34375 3.03125 -7.53125 C 3.15625 -7.71875 3.304688 -7.878906 3.484375 -8.015625 C 3.660156 -8.148438 3.863281 -8.257812 4.09375 -8.34375 C 4.332031 -8.425781 4.613281 -8.46875 4.9375 -8.46875 C 5.476562 -8.46875 5.976562 -8.332031 6.4375 -8.0625 C 6.90625 -7.800781 7.25 -7.375 7.46875 -6.78125 L 7.5 -6.78125 C 7.65625 -7.226562 7.9375 -7.617188 8.34375 -7.953125 C 8.757812 -8.296875 9.316406 -8.46875 10.015625 -8.46875 C 10.859375 -8.46875 11.519531 -8.191406 12 -7.640625 C 12.476562 -7.085938 12.71875 -6.3125 12.71875 -5.3125 L 12.71875 0 L 11.4375 0 L 11.4375 -5.078125 C 11.4375 -5.816406 11.289062 -6.375 11 -6.75 C 10.707031 -7.125 10.25 -7.3125 9.625 -7.3125 C 9.363281 -7.3125 9.117188 -7.28125 8.890625 -7.21875 C 8.660156 -7.15625 8.453125 -7.054688 8.265625 -6.921875 C 8.085938 -6.796875 7.941406 -6.632812 7.828125 -6.4375 C 7.722656 -6.238281 7.671875 -6.003906 7.671875 -5.734375 L 7.671875 0 L 6.390625 0 L 6.390625 -5.078125 C 6.390625 -5.816406 6.242188 -6.375 5.953125 -6.75 C 5.671875 -7.125 5.222656 -7.3125 4.609375 -7.3125 C 4.359375 -7.3125 4.113281 -7.28125 3.875 -7.21875 C 3.644531 -7.15625 3.4375 -7.054688 3.25 -6.921875 C 3.070312 -6.796875 2.925781 -6.632812 2.8125 -6.4375 C 2.695312 -6.238281 2.640625 -6.003906 2.640625 -5.734375 L 2.640625 0 Z M 1.359375 0 "/></g></g></g><g fill="#000000" fill-opacity="1"><g transform="translate(219.091693, 261.506287)"><g><path d="M 4.46875 0.1875 C 3.90625 0.1875 3.394531 0.0859375 2.9375 -0.109375 C 2.488281 -0.316406 2.097656 -0.609375 1.765625 -0.984375 C 1.441406 -1.367188 1.191406 -1.820312 1.015625 -2.34375 C 0.835938 -2.875 0.75 -3.472656 0.75 -4.140625 C 0.75 -4.785156 0.835938 -5.375 1.015625 -5.90625 C 1.191406 -6.445312 1.441406 -6.90625 1.765625 -7.28125 C 2.097656 -7.664062 2.488281 -7.957031 2.9375 -8.15625 C 3.394531 -8.363281 3.90625 -8.46875 4.46875 -8.46875 C 5.03125 -8.46875 5.53125 -8.363281 5.96875 -8.15625 C 6.40625 -7.957031 6.773438 -7.675781 7.078125 -7.3125 C 7.390625 -6.957031 7.628906 -6.535156 7.796875 -6.046875 C 7.960938 -5.554688 8.046875 -5.015625 8.046875 -4.421875 L 8.046875 -3.8125 L 2.09375 -3.8125 L 2.09375 -3.4375 C 2.09375 -3.082031 2.148438 -2.75 2.265625 -2.4375 C 2.378906 -2.132812 2.539062 -1.867188 2.75 -1.640625 C 2.957031 -1.421875 3.210938 -1.25 3.515625 -1.125 C 3.816406 -1 4.160156 -0.9375 4.546875 -0.9375 C 5.078125 -0.9375 5.535156 -1.054688 5.921875 -1.296875 C 6.316406 -1.546875 6.617188 -1.898438 6.828125 -2.359375 L 7.75 -1.703125 C 7.476562 -1.128906 7.054688 -0.671875 6.484375 -0.328125 C 5.921875 0.015625 5.25 0.1875 4.46875 0.1875 Z M 4.46875 -7.390625 C 4.113281 -7.390625 3.789062 -7.328125 3.5 -7.203125 C 3.21875 -7.078125 2.972656 -6.898438 2.765625 -6.671875 C 2.554688 -6.453125 2.390625 -6.191406 2.265625 -5.890625 C 2.148438 -5.585938 2.09375 -5.253906 2.09375 -4.890625 L 2.09375 -4.78125 L 6.671875 -4.78125 L 6.671875 -4.953125 C 6.671875 -5.691406 6.46875 -6.28125 6.0625 -6.71875 C 5.664062 -7.164062 5.132812 -7.390625 4.46875 -7.390625 Z M 4.46875 -7.390625 "/></g></g></g><g fill="#000000" fill-opacity="1"><g transform="translate(227.887956, 261.506287)"><g><path d="M 1.359375 0 L 1.359375 -8.265625 L 2.640625 -8.265625 L 2.640625 -6.921875 L 2.703125 -6.921875 C 2.910156 -7.390625 3.195312 -7.765625 3.5625 -8.046875 C 3.9375 -8.328125 4.429688 -8.46875 5.046875 -8.46875 C 5.898438 -8.46875 6.578125 -8.191406 7.078125 -7.640625 C 7.578125 -7.085938 7.828125 -6.3125 7.828125 -5.3125 L 7.828125 0 L 6.546875 0 L 6.546875 -5.078125 C 6.546875 -6.566406 5.921875 -7.3125 4.671875 -7.3125 C 4.410156 -7.3125 4.160156 -7.28125 3.921875 -7.21875 C 3.679688 -7.15625 3.460938 -7.054688 3.265625 -6.921875 C 3.078125 -6.796875 2.925781 -6.632812 2.8125 -6.4375 C 2.695312 -6.238281 2.640625 -6.003906 2.640625 -5.734375 L 2.640625 0 Z M 1.359375 0 "/></g></g></g><g fill="#000000" fill-opacity="1"><g transform="translate(236.98864, 261.506287)"><g><path d="M 3.1875 0 C 2.738281 0 2.398438 -0.125 2.171875 -0.375 C 1.941406 -0.625 1.828125 -0.953125 1.828125 -1.359375 L 1.828125 -7.15625 L 0.46875 -7.15625 L 0.46875 -8.265625 L 1.234375 -8.265625 C 1.515625 -8.265625 1.703125 -8.320312 1.796875 -8.4375 C 1.898438 -8.550781 1.953125 -8.75 1.953125 -9.03125 L 1.953125 -10.5625 L 3.109375 -10.5625 L 3.109375 -8.265625 L 4.921875 -8.265625 L 4.921875 -7.15625 L 3.109375 -7.15625 L 3.109375 -1.125 L 4.796875 -1.125 L 4.796875 0 Z M 3.1875 0 "/></g></g></g><g clip-path="url(#5dff64eb77)"><g clip-path="url(#d1d5c6c8bd)"><g clip-path="url(#b40f5b906a)"><path fill="#a6a6a6" d="M 288.535156 501.953125 C 288.769531 500.511719 287.789062 499.152344 286.347656 498.917969 L 269.359375 496.167969 L 346.414062 450.875 C 347.671875 450.136719 348.09375 448.515625 347.351562 447.253906 C 346.613281 445.996094 344.992188 445.574219 343.734375 446.316406 L 266.679688 491.605469 L 272.539062 475.425781 C 273.035156 474.050781 272.324219 472.535156 270.953125 472.035156 C 269.578125 471.539062 268.0625 472.25 267.566406 473.625 L 259.210938 496.703125 C 258.941406 497.441406 259.019531 498.265625 259.417969 498.941406 C 259.816406 499.621094 260.496094 500.085938 261.273438 500.210938 L 285.5 504.140625 C 286.941406 504.375 288.300781 503.394531 288.535156 501.953125 " fill-opacity="1" fill-rule="nonzero"/></g></g></g><g clip-path="url(#cf797cde5b)"><g clip-path="url(#cd1a13730b)"><g clip-path="url(#5016c3198a)"><path fill="#a6a6a6" d="M 489.984375 471.867188 C 488.613281 472.371094 487.914062 473.894531 488.417969 475.261719 L 494.363281 491.414062 L 417.066406 446.539062 C 415.804688 445.804688 414.183594 446.234375 413.453125 447.496094 C 412.71875 448.761719 413.148438 450.378906 414.410156 451.113281 L 491.707031 495.988281 L 474.734375 498.832031 C 473.292969 499.074219 472.320312 500.4375 472.5625 501.878906 C 472.804688 503.320312 474.167969 504.289062 475.609375 504.050781 L 499.816406 499.992188 C 500.589844 499.859375 501.269531 499.390625 501.664062 498.710938 C 502.058594 498.03125 502.132812 497.207031 501.859375 496.46875 L 493.382812 473.4375 C 492.878906 472.066406 491.355469 471.363281 489.984375 471.867188 " fill-opacity="1" fill-rule="nonzero"/></g></g></g><g clip-path="url(#00fd873081)"><g clip-path="url(#a243e1ae5c)"><path fill="#e9ffe6" d="M 311.023438 334.152344 L 449.972656 334.152344 L 449.972656 473.101562 L 311.023438 473.101562 Z M 311.023438 334.152344 " fill-opacity="1" fill-rule="nonzero"/></g></g><g fill="#000000" fill-opacity="1"><g transform="translate(351.061339, 409.054779)"><g><path d="M 7.375 0 C 6.894531 0 6.550781 -0.125 6.34375 -0.375 C 6.132812 -0.632812 6.003906 -0.957031 5.953125 -1.34375 L 5.875 -1.34375 C 5.6875 -0.832031 5.382812 -0.445312 4.96875 -0.1875 C 4.550781 0.0625 4.054688 0.1875 3.484375 0.1875 C 2.609375 0.1875 1.925781 -0.0351562 1.4375 -0.484375 C 0.945312 -0.929688 0.703125 -1.539062 0.703125 -2.3125 C 0.703125 -3.09375 0.988281 -3.691406 1.5625 -4.109375 C 2.132812 -4.523438 3.023438 -4.734375 4.234375 -4.734375 L 5.875 -4.734375 L 5.875 -5.546875 C 5.875 -6.128906 5.710938 -6.578125 5.390625 -6.890625 C 5.066406 -7.203125 4.570312 -7.359375 3.90625 -7.359375 C 3.40625 -7.359375 2.984375 -7.242188 2.640625 -7.015625 C 2.304688 -6.796875 2.03125 -6.5 1.8125 -6.125 L 1.046875 -6.84375 C 1.265625 -7.289062 1.617188 -7.671875 2.109375 -7.984375 C 2.609375 -8.304688 3.226562 -8.46875 3.96875 -8.46875 C 4.976562 -8.46875 5.757812 -8.21875 6.3125 -7.71875 C 6.875 -7.226562 7.15625 -6.546875 7.15625 -5.671875 L 7.15625 -1.125 L 8.09375 -1.125 L 8.09375 0 Z M 3.6875 -0.890625 C 4.007812 -0.890625 4.300781 -0.925781 4.5625 -1 C 4.832031 -1.082031 5.0625 -1.191406 5.25 -1.328125 C 5.445312 -1.460938 5.597656 -1.617188 5.703125 -1.796875 C 5.816406 -1.984375 5.875 -2.1875 5.875 -2.40625 L 5.875 -3.765625 L 4.171875 -3.765625 C 3.429688 -3.765625 2.890625 -3.65625 2.546875 -3.4375 C 2.210938 -3.226562 2.046875 -2.921875 2.046875 -2.515625 L 2.046875 -2.1875 C 2.046875 -1.78125 2.191406 -1.460938 2.484375 -1.234375 C 2.785156 -1.003906 3.1875 -0.890625 3.6875 -0.890625 Z M 3.6875 -0.890625 "/></g></g></g><g fill="#000000" fill-opacity="1"><g transform="translate(359.617265, 409.054779)"><g><path d="M 6.65625 -1.34375 L 6.59375 -1.34375 C 6.082031 -0.320312 5.273438 0.1875 4.171875 0.1875 C 3.660156 0.1875 3.191406 0.0859375 2.765625 -0.109375 C 2.347656 -0.316406 1.992188 -0.601562 1.703125 -0.96875 C 1.410156 -1.34375 1.1875 -1.796875 1.03125 -2.328125 C 0.875 -2.867188 0.796875 -3.472656 0.796875 -4.140625 C 0.796875 -4.796875 0.875 -5.390625 1.03125 -5.921875 C 1.1875 -6.460938 1.410156 -6.921875 1.703125 -7.296875 C 1.992188 -7.671875 2.347656 -7.957031 2.765625 -8.15625 C 3.191406 -8.363281 3.660156 -8.46875 4.171875 -8.46875 C 4.742188 -8.46875 5.234375 -8.34375 5.640625 -8.09375 C 6.054688 -7.84375 6.375 -7.453125 6.59375 -6.921875 L 6.65625 -6.921875 L 6.65625 -11.859375 L 7.9375 -11.859375 L 7.9375 0 L 6.65625 0 Z M 4.515625 -0.96875 C 4.804688 -0.96875 5.082031 -1.003906 5.34375 -1.078125 C 5.601562 -1.148438 5.828125 -1.257812 6.015625 -1.40625 C 6.210938 -1.550781 6.367188 -1.726562 6.484375 -1.9375 C 6.597656 -2.144531 6.65625 -2.378906 6.65625 -2.640625 L 6.65625 -5.71875 C 6.65625 -5.945312 6.597656 -6.160156 6.484375 -6.359375 C 6.367188 -6.554688 6.210938 -6.722656 6.015625 -6.859375 C 5.828125 -6.992188 5.601562 -7.101562 5.34375 -7.1875 C 5.082031 -7.269531 4.804688 -7.3125 4.515625 -7.3125 C 3.796875 -7.3125 3.226562 -7.082031 2.8125 -6.625 C 2.394531 -6.175781 2.1875 -5.582031 2.1875 -4.84375 L 2.1875 -3.4375 C 2.1875 -2.695312 2.394531 -2.097656 2.8125 -1.640625 C 3.226562 -1.191406 3.796875 -0.96875 4.515625 -0.96875 Z M 4.515625 -0.96875 "/></g></g></g><g fill="#000000" fill-opacity="1"><g transform="translate(368.910213, 409.054779)"><g><path d="M 6.65625 -1.34375 L 6.59375 -1.34375 C 6.082031 -0.320312 5.273438 0.1875 4.171875 0.1875 C 3.660156 0.1875 3.191406 0.0859375 2.765625 -0.109375 C 2.347656 -0.316406 1.992188 -0.601562 1.703125 -0.96875 C 1.410156 -1.34375 1.1875 -1.796875 1.03125 -2.328125 C 0.875 -2.867188 0.796875 -3.472656 0.796875 -4.140625 C 0.796875 -4.796875 0.875 -5.390625 1.03125 -5.921875 C 1.1875 -6.460938 1.410156 -6.921875 1.703125 -7.296875 C 1.992188 -7.671875 2.347656 -7.957031 2.765625 -8.15625 C 3.191406 -8.363281 3.660156 -8.46875 4.171875 -8.46875 C 4.742188 -8.46875 5.234375 -8.34375 5.640625 -8.09375 C 6.054688 -7.84375 6.375 -7.453125 6.59375 -6.921875 L 6.65625 -6.921875 L 6.65625 -11.859375 L 7.9375 -11.859375 L 7.9375 0 L 6.65625 0 Z M 4.515625 -0.96875 C 4.804688 -0.96875 5.082031 -1.003906 5.34375 -1.078125 C 5.601562 -1.148438 5.828125 -1.257812 6.015625 -1.40625 C 6.210938 -1.550781 6.367188 -1.726562 6.484375 -1.9375 C 6.597656 -2.144531 6.65625 -2.378906 6.65625 -2.640625 L 6.65625 -5.71875 C 6.65625 -5.945312 6.597656 -6.160156 6.484375 -6.359375 C 6.367188 -6.554688 6.210938 -6.722656 6.015625 -6.859375 C 5.828125 -6.992188 5.601562 -7.101562 5.34375 -7.1875 C 5.082031 -7.269531 4.804688 -7.3125 4.515625 -7.3125 C 3.796875 -7.3125 3.226562 -7.082031 2.8125 -6.625 C 2.394531 -6.175781 2.1875 -5.582031 2.1875 -4.84375 L 2.1875 -3.4375 C 2.1875 -2.695312 2.394531 -2.097656 2.8125 -1.640625 C 3.226562 -1.191406 3.796875 -0.96875 4.515625 -0.96875 Z M 4.515625 -0.96875 "/></g></g></g><g fill="#000000" fill-opacity="1"><g transform="translate(378.203161, 409.054779)"><g><path d="M 2 -10.21875 C 1.726562 -10.21875 1.53125 -10.28125 1.40625 -10.40625 C 1.28125 -10.539062 1.21875 -10.71875 1.21875 -10.9375 L 1.21875 -11.140625 C 1.21875 -11.359375 1.28125 -11.53125 1.40625 -11.65625 C 1.53125 -11.789062 1.726562 -11.859375 2 -11.859375 C 2.28125 -11.859375 2.484375 -11.789062 2.609375 -11.65625 C 2.734375 -11.53125 2.796875 -11.359375 2.796875 -11.140625 L 2.796875 -10.9375 C 2.796875 -10.71875 2.734375 -10.539062 2.609375 -10.40625 C 2.484375 -10.28125 2.28125 -10.21875 2 -10.21875 Z M 1.359375 -8.265625 L 2.640625 -8.265625 L 2.640625 0 L 1.359375 0 Z M 1.359375 -8.265625 "/></g></g></g><g fill="#000000" fill-opacity="1"><g transform="translate(382.208746, 409.054779)"><g><path d="M 3.1875 0 C 2.738281 0 2.398438 -0.125 2.171875 -0.375 C 1.941406 -0.625 1.828125 -0.953125 1.828125 -1.359375 L 1.828125 -7.15625 L 0.46875 -7.15625 L 0.46875 -8.265625 L 1.234375 -8.265625 C 1.515625 -8.265625 1.703125 -8.320312 1.796875 -8.4375 C 1.898438 -8.550781 1.953125 -8.75 1.953125 -9.03125 L 1.953125 -10.5625 L 3.109375 -10.5625 L 3.109375 -8.265625 L 4.921875 -8.265625 L 4.921875 -7.15625 L 3.109375 -7.15625 L 3.109375 -1.125 L 4.796875 -1.125 L 4.796875 0 Z M 3.1875 0 "/></g></g></g><g fill="#000000" fill-opacity="1"><g transform="translate(387.832589, 409.054779)"><g><path d="M 2 -10.21875 C 1.726562 -10.21875 1.53125 -10.28125 1.40625 -10.40625 C 1.28125 -10.539062 1.21875 -10.71875 1.21875 -10.9375 L 1.21875 -11.140625 C 1.21875 -11.359375 1.28125 -11.53125 1.40625 -11.65625 C 1.53125 -11.789062 1.726562 -11.859375 2 -11.859375 C 2.28125 -11.859375 2.484375 -11.789062 2.609375 -11.65625 C 2.734375 -11.53125 2.796875 -11.359375 2.796875 -11.140625 L 2.796875 -10.9375 C 2.796875 -10.71875 2.734375 -10.539062 2.609375 -10.40625 C 2.484375 -10.28125 2.28125 -10.21875 2 -10.21875 Z M 1.359375 -8.265625 L 2.640625 -8.265625 L 2.640625 0 L 1.359375 0 Z M 1.359375 -8.265625 "/></g></g></g><g fill="#000000" fill-opacity="1"><g transform="translate(391.838174, 409.054779)"><g><path d="M 4.484375 0.1875 C 3.929688 0.1875 3.425781 0.0859375 2.96875 -0.109375 C 2.507812 -0.316406 2.113281 -0.609375 1.78125 -0.984375 C 1.457031 -1.367188 1.203125 -1.820312 1.015625 -2.34375 C 0.835938 -2.875 0.75 -3.472656 0.75 -4.140625 C 0.75 -4.785156 0.835938 -5.375 1.015625 -5.90625 C 1.203125 -6.445312 1.457031 -6.90625 1.78125 -7.28125 C 2.113281 -7.664062 2.507812 -7.957031 2.96875 -8.15625 C 3.425781 -8.363281 3.929688 -8.46875 4.484375 -8.46875 C 5.046875 -8.46875 5.550781 -8.363281 6 -8.15625 C 6.457031 -7.957031 6.847656 -7.664062 7.171875 -7.28125 C 7.503906 -6.90625 7.757812 -6.445312 7.9375 -5.90625 C 8.125 -5.375 8.21875 -4.785156 8.21875 -4.140625 C 8.21875 -3.472656 8.125 -2.875 7.9375 -2.34375 C 7.757812 -1.820312 7.503906 -1.367188 7.171875 -0.984375 C 6.847656 -0.609375 6.457031 -0.316406 6 -0.109375 C 5.550781 0.0859375 5.046875 0.1875 4.484375 0.1875 Z M 4.484375 -0.953125 C 5.179688 -0.953125 5.75 -1.164062 6.1875 -1.59375 C 6.625 -2.019531 6.84375 -2.671875 6.84375 -3.546875 L 6.84375 -4.734375 C 6.84375 -5.609375 6.625 -6.257812 6.1875 -6.6875 C 5.75 -7.113281 5.179688 -7.328125 4.484375 -7.328125 C 3.796875 -7.328125 3.226562 -7.113281 2.78125 -6.6875 C 2.34375 -6.257812 2.125 -5.609375 2.125 -4.734375 L 2.125 -3.546875 C 2.125 -2.671875 2.34375 -2.019531 2.78125 -1.59375 C 3.226562 -1.164062 3.796875 -0.953125 4.484375 -0.953125 Z M 4.484375 -0.953125 "/></g></g></g><g fill="#000000" fill-opacity="1"><g transform="translate(400.810678, 409.054779)"><g><path d="M 1.359375 0 L 1.359375 -8.265625 L 2.640625 -8.265625 L 2.640625 -6.921875 L 2.703125 -6.921875 C 2.910156 -7.390625 3.195312 -7.765625 3.5625 -8.046875 C 3.9375 -8.328125 4.429688 -8.46875 5.046875 -8.46875 C 5.898438 -8.46875 6.578125 -8.191406 7.078125 -7.640625 C 7.578125 -7.085938 7.828125 -6.3125 7.828125 -5.3125 L 7.828125 0 L 6.546875 0 L 6.546875 -5.078125 C 6.546875 -6.566406 5.921875 -7.3125 4.671875 -7.3125 C 4.410156 -7.3125 4.160156 -7.28125 3.921875 -7.21875 C 3.679688 -7.15625 3.460938 -7.054688 3.265625 -6.921875 C 3.078125 -6.796875 2.925781 -6.632812 2.8125 -6.4375 C 2.695312 -6.238281 2.640625 -6.003906 2.640625 -5.734375 L 2.640625 0 Z M 1.359375 0 "/></g></g></g><g clip-path="url(#585047330d)"><path fill="#fff1f1" d="M 0 337.5625 L 77.71875 337.5625 L 77.71875 469.625 L 0 469.625 Z M 0 337.5625 " fill-opacity="1" fill-rule="nonzero"/></g><g fill="#000000" fill-opacity="1"><g transform="translate(4.260128, 398.233937)"><g><path d="M 2 -10.1875 C 1.71875 -10.1875 1.515625 -10.25 1.390625 -10.375 C 1.273438 -10.507812 1.21875 -10.6875 1.21875 -10.90625 L 1.21875 -11.109375 C 1.21875 -11.316406 1.273438 -11.488281 1.390625 -11.625 C 1.515625 -11.757812 1.71875 -11.828125 2 -11.828125 C 2.269531 -11.828125 2.46875 -11.757812 2.59375 -11.625 C 2.71875 -11.488281 2.78125 -11.316406 2.78125 -11.109375 L 2.78125 -10.90625 C 2.78125 -10.6875 2.71875 -10.507812 2.59375 -10.375 C 2.46875 -10.25 2.269531 -10.1875 2 -10.1875 Z M 1.359375 -8.25 L 2.640625 -8.25 L 2.640625 0 L 1.359375 0 Z M 1.359375 -8.25 "/></g></g></g><g fill="#000000" fill-opacity="1"><g transform="translate(8.254009, 398.233937)"><g><path d="M 6.640625 -1.34375 L 6.5625 -1.34375 C 6.0625 -0.320312 5.257812 0.1875 4.15625 0.1875 C 3.644531 0.1875 3.179688 0.0859375 2.765625 -0.109375 C 2.347656 -0.316406 1.992188 -0.601562 1.703125 -0.96875 C 1.410156 -1.34375 1.1875 -1.796875 1.03125 -2.328125 C 0.875 -2.867188 0.796875 -3.46875 0.796875 -4.125 C 0.796875 -4.78125 0.875 -5.375 1.03125 -5.90625 C 1.1875 -6.445312 1.410156 -6.898438 1.703125 -7.265625 C 1.992188 -7.640625 2.347656 -7.925781 2.765625 -8.125 C 3.179688 -8.332031 3.644531 -8.4375 4.15625 -8.4375 C 4.726562 -8.4375 5.21875 -8.3125 5.625 -8.0625 C 6.039062 -7.8125 6.351562 -7.425781 6.5625 -6.90625 L 6.640625 -6.90625 L 6.640625 -11.828125 L 7.90625 -11.828125 L 7.90625 0 L 6.640625 0 Z M 4.5 -0.953125 C 4.789062 -0.953125 5.066406 -0.988281 5.328125 -1.0625 C 5.585938 -1.144531 5.8125 -1.253906 6 -1.390625 C 6.195312 -1.535156 6.351562 -1.710938 6.46875 -1.921875 C 6.582031 -2.128906 6.640625 -2.367188 6.640625 -2.640625 L 6.640625 -5.703125 C 6.640625 -5.929688 6.582031 -6.144531 6.46875 -6.34375 C 6.351562 -6.539062 6.195312 -6.707031 6 -6.84375 C 5.8125 -6.976562 5.585938 -7.082031 5.328125 -7.15625 C 5.066406 -7.238281 4.789062 -7.28125 4.5 -7.28125 C 3.78125 -7.28125 3.210938 -7.054688 2.796875 -6.609375 C 2.378906 -6.160156 2.171875 -5.566406 2.171875 -4.828125 L 2.171875 -3.421875 C 2.171875 -2.679688 2.378906 -2.082031 2.796875 -1.625 C 3.210938 -1.175781 3.78125 -0.953125 4.5 -0.953125 Z M 4.5 -0.953125 "/></g></g></g><g fill="#000000" fill-opacity="1"><g transform="translate(17.519824, 398.233937)"><g><path d="M 4.453125 0.1875 C 3.890625 0.1875 3.378906 0.0859375 2.921875 -0.109375 C 2.472656 -0.316406 2.085938 -0.609375 1.765625 -0.984375 C 1.441406 -1.359375 1.191406 -1.8125 1.015625 -2.34375 C 0.835938 -2.875 0.75 -3.46875 0.75 -4.125 C 0.75 -4.769531 0.835938 -5.359375 1.015625 -5.890625 C 1.191406 -6.429688 1.441406 -6.890625 1.765625 -7.265625 C 2.085938 -7.640625 2.472656 -7.925781 2.921875 -8.125 C 3.378906 -8.332031 3.890625 -8.4375 4.453125 -8.4375 C 5.015625 -8.4375 5.507812 -8.332031 5.9375 -8.125 C 6.375 -7.925781 6.75 -7.648438 7.0625 -7.296875 C 7.375 -6.941406 7.613281 -6.519531 7.78125 -6.03125 C 7.945312 -5.539062 8.03125 -5 8.03125 -4.40625 L 8.03125 -3.796875 L 2.09375 -3.796875 L 2.09375 -3.421875 C 2.09375 -3.066406 2.144531 -2.738281 2.25 -2.4375 C 2.363281 -2.132812 2.523438 -1.867188 2.734375 -1.640625 C 2.941406 -1.421875 3.195312 -1.242188 3.5 -1.109375 C 3.8125 -0.984375 4.160156 -0.921875 4.546875 -0.921875 C 5.066406 -0.921875 5.519531 -1.039062 5.90625 -1.28125 C 6.289062 -1.53125 6.59375 -1.882812 6.8125 -2.34375 L 7.71875 -1.6875 C 7.457031 -1.125 7.039062 -0.671875 6.46875 -0.328125 C 5.90625 0.015625 5.234375 0.1875 4.453125 0.1875 Z M 4.453125 -7.375 C 4.109375 -7.375 3.789062 -7.3125 3.5 -7.1875 C 3.207031 -7.0625 2.957031 -6.882812 2.75 -6.65625 C 2.550781 -6.4375 2.390625 -6.175781 2.265625 -5.875 C 2.148438 -5.570312 2.09375 -5.238281 2.09375 -4.875 L 2.09375 -4.765625 L 6.65625 -4.765625 L 6.65625 -4.9375 C 6.65625 -5.675781 6.453125 -6.265625 6.046875 -6.703125 C 5.648438 -7.148438 5.117188 -7.375 4.453125 -7.375 Z M 4.453125 -7.375 "/></g></g></g><g fill="#000000" fill-opacity="1"><g transform="translate(26.290394, 398.233937)"><g><path d="M 1.359375 0 L 1.359375 -8.25 L 2.640625 -8.25 L 2.640625 -6.90625 L 2.703125 -6.90625 C 2.898438 -7.375 3.179688 -7.742188 3.546875 -8.015625 C 3.921875 -8.296875 4.414062 -8.4375 5.03125 -8.4375 C 5.882812 -8.4375 6.554688 -8.160156 7.046875 -7.609375 C 7.546875 -7.066406 7.796875 -6.296875 7.796875 -5.296875 L 7.796875 0 L 6.515625 0 L 6.515625 -5.0625 C 6.515625 -6.539062 5.894531 -7.28125 4.65625 -7.28125 C 4.394531 -7.28125 4.144531 -7.25 3.90625 -7.1875 C 3.664062 -7.125 3.445312 -7.03125 3.25 -6.90625 C 3.0625 -6.78125 2.910156 -6.617188 2.796875 -6.421875 C 2.691406 -6.222656 2.640625 -5.988281 2.640625 -5.71875 L 2.640625 0 Z M 1.359375 0 "/></g></g></g><g fill="#000000" fill-opacity="1"><g transform="translate(35.364504, 398.233937)"><g><path d="M 3.1875 0 C 2.738281 0 2.398438 -0.125 2.171875 -0.375 C 1.941406 -0.625 1.828125 -0.953125 1.828125 -1.359375 L 1.828125 -7.125 L 0.46875 -7.125 L 0.46875 -8.25 L 1.234375 -8.25 C 1.503906 -8.25 1.691406 -8.300781 1.796875 -8.40625 C 1.898438 -8.519531 1.953125 -8.71875 1.953125 -9 L 1.953125 -10.53125 L 3.09375 -10.53125 L 3.09375 -8.25 L 4.90625 -8.25 L 4.90625 -7.125 L 3.09375 -7.125 L 3.09375 -1.125 L 4.78125 -1.125 L 4.78125 0 Z M 3.1875 0 "/></g></g></g><g fill="#000000" fill-opacity="1"><g transform="translate(40.971923, 398.233937)"><g><path d="M 2 -10.1875 C 1.71875 -10.1875 1.515625 -10.25 1.390625 -10.375 C 1.273438 -10.507812 1.21875 -10.6875 1.21875 -10.90625 L 1.21875 -11.109375 C 1.21875 -11.316406 1.273438 -11.488281 1.390625 -11.625 C 1.515625 -11.757812 1.71875 -11.828125 2 -11.828125 C 2.269531 -11.828125 2.46875 -11.757812 2.59375 -11.625 C 2.71875 -11.488281 2.78125 -11.316406 2.78125 -11.109375 L 2.78125 -10.90625 C 2.78125 -10.6875 2.71875 -10.507812 2.59375 -10.375 C 2.46875 -10.25 2.269531 -10.1875 2 -10.1875 Z M 1.359375 -8.25 L 2.640625 -8.25 L 2.640625 0 L 1.359375 0 Z M 1.359375 -8.25 "/></g></g></g><g fill="#000000" fill-opacity="1"><g transform="translate(44.965804, 398.233937)"><g><path d="M 1.8125 -7.125 L 0.46875 -7.125 L 0.46875 -8.25 L 1.8125 -8.25 L 1.8125 -9.90625 C 1.8125 -10.476562 1.957031 -10.941406 2.25 -11.296875 C 2.550781 -11.648438 3.003906 -11.828125 3.609375 -11.828125 L 4.859375 -11.828125 L 4.859375 -10.703125 L 3.078125 -10.703125 L 3.078125 -8.25 L 4.859375 -8.25 L 4.859375 -7.125 L 3.078125 -7.125 L 3.078125 0 L 1.8125 0 Z M 1.8125 -7.125 "/></g></g></g><g fill="#000000" fill-opacity="1"><g transform="translate(50.14188, 398.233937)"><g><path d="M 2 -10.1875 C 1.71875 -10.1875 1.515625 -10.25 1.390625 -10.375 C 1.273438 -10.507812 1.21875 -10.6875 1.21875 -10.90625 L 1.21875 -11.109375 C 1.21875 -11.316406 1.273438 -11.488281 1.390625 -11.625 C 1.515625 -11.757812 1.71875 -11.828125 2 -11.828125 C 2.269531 -11.828125 2.46875 -11.757812 2.59375 -11.625 C 2.71875 -11.488281 2.78125 -11.316406 2.78125 -11.109375 L 2.78125 -10.90625 C 2.78125 -10.6875 2.71875 -10.507812 2.59375 -10.375 C 2.46875 -10.25 2.269531 -10.1875 2 -10.1875 Z M 1.359375 -8.25 L 2.640625 -8.25 L 2.640625 0 L 1.359375 0 Z M 1.359375 -8.25 "/></g></g></g><g fill="#000000" fill-opacity="1"><g transform="translate(54.135761, 398.233937)"><g><path d="M 4.453125 0.1875 C 3.890625 0.1875 3.378906 0.0859375 2.921875 -0.109375 C 2.472656 -0.316406 2.085938 -0.609375 1.765625 -0.984375 C 1.441406 -1.359375 1.191406 -1.8125 1.015625 -2.34375 C 0.835938 -2.875 0.75 -3.46875 0.75 -4.125 C 0.75 -4.769531 0.835938 -5.359375 1.015625 -5.890625 C 1.191406 -6.429688 1.441406 -6.890625 1.765625 -7.265625 C 2.085938 -7.640625 2.472656 -7.925781 2.921875 -8.125 C 3.378906 -8.332031 3.890625 -8.4375 4.453125 -8.4375 C 5.015625 -8.4375 5.507812 -8.332031 5.9375 -8.125 C 6.375 -7.925781 6.75 -7.648438 7.0625 -7.296875 C 7.375 -6.941406 7.613281 -6.519531 7.78125 -6.03125 C 7.945312 -5.539062 8.03125 -5 8.03125 -4.40625 L 8.03125 -3.796875 L 2.09375 -3.796875 L 2.09375 -3.421875 C 2.09375 -3.066406 2.144531 -2.738281 2.25 -2.4375 C 2.363281 -2.132812 2.523438 -1.867188 2.734375 -1.640625 C 2.941406 -1.421875 3.195312 -1.242188 3.5 -1.109375 C 3.8125 -0.984375 4.160156 -0.921875 4.546875 -0.921875 C 5.066406 -0.921875 5.519531 -1.039062 5.90625 -1.28125 C 6.289062 -1.53125 6.59375 -1.882812 6.8125 -2.34375 L 7.71875 -1.6875 C 7.457031 -1.125 7.039062 -0.671875 6.46875 -0.328125 C 5.90625 0.015625 5.234375 0.1875 4.453125 0.1875 Z M 4.453125 -7.375 C 4.109375 -7.375 3.789062 -7.3125 3.5 -7.1875 C 3.207031 -7.0625 2.957031 -6.882812 2.75 -6.65625 C 2.550781 -6.4375 2.390625 -6.175781 2.265625 -5.875 C 2.148438 -5.570312 2.09375 -5.238281 2.09375 -4.875 L 2.09375 -4.765625 L 6.65625 -4.765625 L 6.65625 -4.9375 C 6.65625 -5.675781 6.453125 -6.265625 6.046875 -6.703125 C 5.648438 -7.148438 5.117188 -7.375 4.453125 -7.375 Z M 4.453125 -7.375 "/></g></g></g><g fill="#000000" fill-opacity="1"><g transform="translate(62.906331, 398.233937)"><g><path d="M 1.359375 0 L 1.359375 -8.25 L 2.640625 -8.25 L 2.640625 -6.734375 L 2.71875 -6.734375 C 2.863281 -7.128906 3.128906 -7.476562 3.515625 -7.78125 C 3.898438 -8.09375 4.425781 -8.25 5.09375 -8.25 L 5.59375 -8.25 L 5.59375 -6.96875 L 4.84375 -6.96875 C 4.144531 -6.96875 3.601562 -6.835938 3.21875 -6.578125 C 2.832031 -6.316406 2.640625 -5.988281 2.640625 -5.59375 L 2.640625 0 Z M 1.359375 0 "/></g></g></g><g fill="#000000" fill-opacity="1"><g transform="translate(68.769356, 398.233937)"><g><path d="M 2.328125 0.1875 C 1.984375 0.1875 1.734375 0.101562 1.578125 -0.0625 C 1.429688 -0.226562 1.359375 -0.453125 1.359375 -0.734375 L 1.359375 -0.9375 C 1.359375 -1.21875 1.429688 -1.441406 1.578125 -1.609375 C 1.734375 -1.785156 1.984375 -1.875 2.328125 -1.875 C 2.671875 -1.875 2.921875 -1.785156 3.078125 -1.609375 C 3.234375 -1.441406 3.3125 -1.21875 3.3125 -0.9375 L 3.3125 -0.734375 C 3.3125 -0.453125 3.234375 -0.226562 3.078125 -0.0625 C 2.921875 0.101562 2.671875 0.1875 2.328125 0.1875 Z M 2.328125 -6.375 C 1.984375 -6.375 1.734375 -6.457031 1.578125 -6.625 C 1.429688 -6.789062 1.359375 -7.015625 1.359375 -7.296875 L 1.359375 -7.5 C 1.359375 -7.78125 1.429688 -8.003906 1.578125 -8.171875 C 1.734375 -8.347656 1.984375 -8.4375 2.328125 -8.4375 C 2.671875 -8.4375 2.921875 -8.347656 3.078125 -8.171875 C 3.234375 -8.003906 3.3125 -7.78125 3.3125 -7.5 L 3.3125 -7.296875 C 3.3125 -7.015625 3.234375 -6.789062 3.078125 -6.625 C 2.921875 -6.457031 2.671875 -6.375 2.328125 -6.375 Z M 2.328125 -6.375 "/></g></g></g><g fill="#000000" fill-opacity="1"><g transform="translate(34.58428, 419.955908)"><g><path d="M 7.359375 0 C 6.878906 0 6.535156 -0.125 6.328125 -0.375 C 6.117188 -0.632812 5.988281 -0.957031 5.9375 -1.34375 L 5.84375 -1.34375 C 5.664062 -0.832031 5.367188 -0.445312 4.953125 -0.1875 C 4.535156 0.0625 4.039062 0.1875 3.46875 0.1875 C 2.59375 0.1875 1.910156 -0.0351562 1.421875 -0.484375 C 0.941406 -0.929688 0.703125 -1.535156 0.703125 -2.296875 C 0.703125 -3.078125 0.984375 -3.675781 1.546875 -4.09375 C 2.117188 -4.507812 3.007812 -4.71875 4.21875 -4.71875 L 5.84375 -4.71875 L 5.84375 -5.53125 C 5.84375 -6.113281 5.679688 -6.5625 5.359375 -6.875 C 5.046875 -7.1875 4.5625 -7.34375 3.90625 -7.34375 C 3.40625 -7.34375 2.984375 -7.226562 2.640625 -7 C 2.304688 -6.78125 2.03125 -6.484375 1.8125 -6.109375 L 1.03125 -6.828125 C 1.257812 -7.273438 1.617188 -7.65625 2.109375 -7.96875 C 2.597656 -8.28125 3.21875 -8.4375 3.96875 -8.4375 C 4.96875 -8.4375 5.742188 -8.191406 6.296875 -7.703125 C 6.847656 -7.210938 7.125 -6.53125 7.125 -5.65625 L 7.125 -1.125 L 8.078125 -1.125 L 8.078125 0 Z M 3.671875 -0.890625 C 3.992188 -0.890625 4.285156 -0.925781 4.546875 -1 C 4.816406 -1.082031 5.046875 -1.191406 5.234375 -1.328125 C 5.429688 -1.460938 5.582031 -1.617188 5.6875 -1.796875 C 5.789062 -1.984375 5.84375 -2.179688 5.84375 -2.390625 L 5.84375 -3.75 L 4.15625 -3.75 C 3.414062 -3.75 2.878906 -3.640625 2.546875 -3.421875 C 2.210938 -3.210938 2.046875 -2.910156 2.046875 -2.515625 L 2.046875 -2.171875 C 2.046875 -1.765625 2.191406 -1.445312 2.484375 -1.21875 C 2.773438 -1 3.171875 -0.890625 3.671875 -0.890625 Z M 3.671875 -0.890625 "/></g></g></g><g clip-path="url(#68af6afb9d)"><path fill="#fff1f1" d="M 180.769531 473.101562 L 258.492188 473.101562 L 258.492188 605.167969 L 180.769531 605.167969 Z M 180.769531 473.101562 " fill-opacity="1" fill-rule="nonzero"/></g><g fill="#000000" fill-opacity="1"><g transform="translate(206.693241, 533.774008)"><g><path d="M 2.71875 0 C 2.269531 0 1.929688 -0.125 1.703125 -0.375 C 1.472656 -0.625 1.359375 -0.941406 1.359375 -1.328125 L 1.359375 -11.828125 L 2.640625 -11.828125 L 2.640625 -1.125 L 3.859375 -1.125 L 3.859375 0 Z M 2.71875 0 "/></g></g></g><g fill="#000000" fill-opacity="1"><g transform="translate(211.038586, 533.774008)"><g><path d="M 1.359375 -11.828125 L 2.640625 -11.828125 L 2.640625 -6.90625 L 2.703125 -6.90625 C 2.898438 -7.375 3.179688 -7.742188 3.546875 -8.015625 C 3.921875 -8.296875 4.414062 -8.4375 5.03125 -8.4375 C 5.882812 -8.4375 6.554688 -8.160156 7.046875 -7.609375 C 7.546875 -7.066406 7.796875 -6.296875 7.796875 -5.296875 L 7.796875 0 L 6.515625 0 L 6.515625 -5.0625 C 6.515625 -6.539062 5.894531 -7.28125 4.65625 -7.28125 C 4.394531 -7.28125 4.144531 -7.25 3.90625 -7.1875 C 3.664062 -7.125 3.445312 -7.03125 3.25 -6.90625 C 3.0625 -6.78125 2.910156 -6.617188 2.796875 -6.421875 C 2.691406 -6.222656 2.640625 -5.988281 2.640625 -5.71875 L 2.640625 0 L 1.359375 0 Z M 1.359375 -11.828125 "/></g></g></g><g fill="#000000" fill-opacity="1"><g transform="translate(220.112696, 533.774008)"><g><path d="M 3.84375 0.1875 C 3.070312 0.1875 2.425781 0.0390625 1.90625 -0.25 C 1.394531 -0.539062 0.953125 -0.929688 0.578125 -1.421875 L 1.484375 -2.15625 C 1.804688 -1.75 2.164062 -1.4375 2.5625 -1.21875 C 2.957031 -1 3.414062 -0.890625 3.9375 -0.890625 C 4.476562 -0.890625 4.898438 -1.003906 5.203125 -1.234375 C 5.503906 -1.472656 5.65625 -1.804688 5.65625 -2.234375 C 5.65625 -2.554688 5.550781 -2.832031 5.34375 -3.0625 C 5.132812 -3.289062 4.757812 -3.445312 4.21875 -3.53125 L 3.5625 -3.625 C 3.175781 -3.675781 2.820312 -3.757812 2.5 -3.875 C 2.1875 -3.988281 1.910156 -4.140625 1.671875 -4.328125 C 1.429688 -4.515625 1.242188 -4.742188 1.109375 -5.015625 C 0.972656 -5.296875 0.90625 -5.628906 0.90625 -6.015625 C 0.90625 -6.421875 0.976562 -6.773438 1.125 -7.078125 C 1.28125 -7.378906 1.488281 -7.628906 1.75 -7.828125 C 2.007812 -8.035156 2.320312 -8.1875 2.6875 -8.28125 C 3.050781 -8.382812 3.441406 -8.4375 3.859375 -8.4375 C 4.523438 -8.4375 5.082031 -8.316406 5.53125 -8.078125 C 5.988281 -7.847656 6.390625 -7.523438 6.734375 -7.109375 L 5.875 -6.34375 C 5.695312 -6.601562 5.429688 -6.835938 5.078125 -7.046875 C 4.734375 -7.253906 4.289062 -7.359375 3.75 -7.359375 C 3.21875 -7.359375 2.816406 -7.242188 2.546875 -7.015625 C 2.273438 -6.785156 2.140625 -6.472656 2.140625 -6.078125 C 2.140625 -5.671875 2.273438 -5.375 2.546875 -5.1875 C 2.816406 -5.007812 3.207031 -4.878906 3.71875 -4.796875 L 4.359375 -4.703125 C 5.273438 -4.554688 5.925781 -4.289062 6.3125 -3.90625 C 6.695312 -3.519531 6.890625 -3.007812 6.890625 -2.375 C 6.890625 -1.582031 6.617188 -0.957031 6.078125 -0.5 C 5.535156 -0.0390625 4.789062 0.1875 3.84375 0.1875 Z M 3.84375 0.1875 "/></g></g></g><g fill="#000000" fill-opacity="1"><g transform="translate(227.892788, 533.774008)"><g><path d="M 2.328125 0.1875 C 1.984375 0.1875 1.734375 0.101562 1.578125 -0.0625 C 1.429688 -0.226562 1.359375 -0.453125 1.359375 -0.734375 L 1.359375 -0.9375 C 1.359375 -1.21875 1.429688 -1.441406 1.578125 -1.609375 C 1.734375 -1.785156 1.984375 -1.875 2.328125 -1.875 C 2.671875 -1.875 2.921875 -1.785156 3.078125 -1.609375 C 3.234375 -1.441406 3.3125 -1.21875 3.3125 -0.9375 L 3.3125 -0.734375 C 3.3125 -0.453125 3.234375 -0.226562 3.078125 -0.0625 C 2.921875 0.101562 2.671875 0.1875 2.328125 0.1875 Z M 2.328125 -6.375 C 1.984375 -6.375 1.734375 -6.457031 1.578125 -6.625 C 1.429688 -6.789062 1.359375 -7.015625 1.359375 -7.296875 L 1.359375 -7.5 C 1.359375 -7.78125 1.429688 -8.003906 1.578125 -8.171875 C 1.734375 -8.347656 1.984375 -8.4375 2.328125 -8.4375 C 2.671875 -8.4375 2.921875 -8.347656 3.078125 -8.171875 C 3.234375 -8.003906 3.3125 -7.78125 3.3125 -7.5 L 3.3125 -7.296875 C 3.3125 -7.015625 3.234375 -6.789062 3.078125 -6.625 C 2.921875 -6.457031 2.671875 -6.375 2.328125 -6.375 Z M 2.328125 -6.375 "/></g></g></g><g fill="#000000" fill-opacity="1"><g transform="translate(214.827276, 555.495979)"><g><path d="M 1.40625 0 L 1.40625 -1.1875 L 4.53125 -1.1875 L 4.53125 -10.171875 L 4.40625 -10.171875 L 1.59375 -7.546875 L 0.8125 -8.390625 L 3.765625 -11.15625 L 5.859375 -11.15625 L 5.859375 -1.1875 L 8.75 -1.1875 L 8.75 0 Z M 1.40625 0 "/></g></g></g><g clip-path="url(#c5d93e1bb4)"><path fill="#fff1f1" d="M 502.40625 473.101562 L 580.128906 473.101562 L 580.128906 605.167969 L 502.40625 605.167969 Z M 502.40625 473.101562 " fill-opacity="1" fill-rule="nonzero"/></g><g fill="#000000" fill-opacity="1"><g transform="translate(527.569196, 533.774008)"><g><path d="M 1.359375 0 L 1.359375 -8.25 L 2.640625 -8.25 L 2.640625 -6.734375 L 2.71875 -6.734375 C 2.863281 -7.128906 3.128906 -7.476562 3.515625 -7.78125 C 3.898438 -8.09375 4.425781 -8.25 5.09375 -8.25 L 5.59375 -8.25 L 5.59375 -6.96875 L 4.84375 -6.96875 C 4.144531 -6.96875 3.601562 -6.835938 3.21875 -6.578125 C 2.832031 -6.316406 2.640625 -5.988281 2.640625 -5.59375 L 2.640625 0 Z M 1.359375 0 "/></g></g></g><g fill="#000000" fill-opacity="1"><g transform="translate(533.432221, 533.774008)"><g><path d="M 1.359375 -11.828125 L 2.640625 -11.828125 L 2.640625 -6.90625 L 2.703125 -6.90625 C 2.898438 -7.375 3.179688 -7.742188 3.546875 -8.015625 C 3.921875 -8.296875 4.414062 -8.4375 5.03125 -8.4375 C 5.882812 -8.4375 6.554688 -8.160156 7.046875 -7.609375 C 7.546875 -7.066406 7.796875 -6.296875 7.796875 -5.296875 L 7.796875 0 L 6.515625 0 L 6.515625 -5.0625 C 6.515625 -6.539062 5.894531 -7.28125 4.65625 -7.28125 C 4.394531 -7.28125 4.144531 -7.25 3.90625 -7.1875 C 3.664062 -7.125 3.445312 -7.03125 3.25 -6.90625 C 3.0625 -6.78125 2.910156 -6.617188 2.796875 -6.421875 C 2.691406 -6.222656 2.640625 -5.988281 2.640625 -5.71875 L 2.640625 0 L 1.359375 0 Z M 1.359375 -11.828125 "/></g></g></g><g fill="#000000" fill-opacity="1"><g transform="translate(542.506331, 533.774008)"><g><path d="M 3.84375 0.1875 C 3.070312 0.1875 2.425781 0.0390625 1.90625 -0.25 C 1.394531 -0.539062 0.953125 -0.929688 0.578125 -1.421875 L 1.484375 -2.15625 C 1.804688 -1.75 2.164062 -1.4375 2.5625 -1.21875 C 2.957031 -1 3.414062 -0.890625 3.9375 -0.890625 C 4.476562 -0.890625 4.898438 -1.003906 5.203125 -1.234375 C 5.503906 -1.472656 5.65625 -1.804688 5.65625 -2.234375 C 5.65625 -2.554688 5.550781 -2.832031 5.34375 -3.0625 C 5.132812 -3.289062 4.757812 -3.445312 4.21875 -3.53125 L 3.5625 -3.625 C 3.175781 -3.675781 2.820312 -3.757812 2.5 -3.875 C 2.1875 -3.988281 1.910156 -4.140625 1.671875 -4.328125 C 1.429688 -4.515625 1.242188 -4.742188 1.109375 -5.015625 C 0.972656 -5.296875 0.90625 -5.628906 0.90625 -6.015625 C 0.90625 -6.421875 0.976562 -6.773438 1.125 -7.078125 C 1.28125 -7.378906 1.488281 -7.628906 1.75 -7.828125 C 2.007812 -8.035156 2.320312 -8.1875 2.6875 -8.28125 C 3.050781 -8.382812 3.441406 -8.4375 3.859375 -8.4375 C 4.523438 -8.4375 5.082031 -8.316406 5.53125 -8.078125 C 5.988281 -7.847656 6.390625 -7.523438 6.734375 -7.109375 L 5.875 -6.34375 C 5.695312 -6.601562 5.429688 -6.835938 5.078125 -7.046875 C 4.734375 -7.253906 4.289062 -7.359375 3.75 -7.359375 C 3.21875 -7.359375 2.816406 -7.242188 2.546875 -7.015625 C 2.273438 -6.785156 2.140625 -6.472656 2.140625 -6.078125 C 2.140625 -5.671875 2.273438 -5.375 2.546875 -5.1875 C 2.816406 -5.007812 3.207031 -4.878906 3.71875 -4.796875 L 4.359375 -4.703125 C 5.273438 -4.554688 5.925781 -4.289062 6.3125 -3.90625 C 6.695312 -3.519531 6.890625 -3.007812 6.890625 -2.375 C 6.890625 -1.582031 6.617188 -0.957031 6.078125 -0.5 C 5.535156 -0.0390625 4.789062 0.1875 3.84375 0.1875 Z M 3.84375 0.1875 "/></g></g></g><g fill="#000000" fill-opacity="1"><g transform="translate(550.286423, 533.774008)"><g><path d="M 2.328125 0.1875 C 1.984375 0.1875 1.734375 0.101562 1.578125 -0.0625 C 1.429688 -0.226562 1.359375 -0.453125 1.359375 -0.734375 L 1.359375 -0.9375 C 1.359375 -1.21875 1.429688 -1.441406 1.578125 -1.609375 C 1.734375 -1.785156 1.984375 -1.875 2.328125 -1.875 C 2.671875 -1.875 2.921875 -1.785156 3.078125 -1.609375 C 3.234375 -1.441406 3.3125 -1.21875 3.3125 -0.9375 L 3.3125 -0.734375 C 3.3125 -0.453125 3.234375 -0.226562 3.078125 -0.0625 C 2.921875 0.101562 2.671875 0.1875 2.328125 0.1875 Z M 2.328125 -6.375 C 1.984375 -6.375 1.734375 -6.457031 1.578125 -6.625 C 1.429688 -6.789062 1.359375 -7.015625 1.359375 -7.296875 L 1.359375 -7.5 C 1.359375 -7.78125 1.429688 -8.003906 1.578125 -8.171875 C 1.734375 -8.347656 1.984375 -8.4375 2.328125 -8.4375 C 2.671875 -8.4375 2.921875 -8.347656 3.078125 -8.171875 C 3.234375 -8.003906 3.3125 -7.78125 3.3125 -7.5 L 3.3125 -7.296875 C 3.3125 -7.015625 3.234375 -6.789062 3.078125 -6.625 C 2.921875 -6.457031 2.671875 -6.375 2.328125 -6.375 Z M 2.328125 -6.375 "/></g></g></g><g fill="#000000" fill-opacity="1"><g transform="translate(536.463969, 555.495979)"><g><path d="M 8.515625 0 L 1.203125 0 L 1.203125 -1.375 L 4.84375 -4.734375 C 5.363281 -5.210938 5.800781 -5.71875 6.15625 -6.25 C 6.507812 -6.789062 6.6875 -7.332031 6.6875 -7.875 L 6.6875 -8.078125 C 6.6875 -8.691406 6.515625 -9.191406 6.171875 -9.578125 C 5.828125 -9.960938 5.3125 -10.15625 4.625 -10.15625 C 4.28125 -10.15625 3.976562 -10.101562 3.71875 -10 C 3.46875 -9.90625 3.25 -9.769531 3.0625 -9.59375 C 2.875 -9.425781 2.71875 -9.226562 2.59375 -9 C 2.46875 -8.769531 2.367188 -8.523438 2.296875 -8.265625 L 1.109375 -8.734375 C 1.210938 -9.054688 1.359375 -9.375 1.546875 -9.6875 C 1.734375 -10.007812 1.96875 -10.289062 2.25 -10.53125 C 2.53125 -10.78125 2.867188 -10.976562 3.265625 -11.125 C 3.671875 -11.269531 4.144531 -11.34375 4.6875 -11.34375 C 5.226562 -11.34375 5.710938 -11.265625 6.140625 -11.109375 C 6.566406 -10.953125 6.921875 -10.726562 7.203125 -10.4375 C 7.492188 -10.144531 7.71875 -9.800781 7.875 -9.40625 C 8.03125 -9.019531 8.109375 -8.585938 8.109375 -8.109375 C 8.109375 -7.671875 8.046875 -7.265625 7.921875 -6.890625 C 7.796875 -6.515625 7.625 -6.160156 7.40625 -5.828125 C 7.195312 -5.492188 6.941406 -5.164062 6.640625 -4.84375 C 6.335938 -4.519531 6.007812 -4.203125 5.65625 -3.890625 L 2.65625 -1.1875 L 8.515625 -1.1875 Z M 8.515625 0 "/></g></g></g></svg>