<svg xmlns="http://www.w3.org/2000/svg" xmlns:xlink="http://www.w3.org/1999/xlink" width="876" zoomAndPan="magnify" viewBox="0 0 657 217.499994" height="290" preserveAspectRatio="xMidYMid meet" version="1.0"><defs><g/><clipPath id="6d3b643821"><path d="M 7.152344 17.347656 L 656 17.347656 L 656 216.53125 L 7.152344 216.53125 Z M 7.152344 17.347656 " clip-rule="nonzero"/></clipPath><clipPath id="5d8a410d1f"><path d="M 22.867188 17.347656 L 640.121094 17.347656 C 648.800781 17.347656 655.835938 24.382812 655.835938 33.0625 L 655.835938 200.820312 C 655.835938 209.496094 648.800781 216.53125 640.121094 216.53125 L 22.867188 216.53125 C 14.1875 216.53125 7.152344 209.496094 7.152344 200.820312 L 7.152344 33.0625 C 7.152344 24.382812 14.1875 17.347656 22.867188 17.347656 Z M 22.867188 17.347656 " clip-rule="nonzero"/></clipPath><clipPath id="ed595c3afb"><path d="M 7.152344 17.347656 L 655.910156 17.347656 L 655.910156 216.390625 L 7.152344 216.390625 Z M 7.152344 17.347656 " clip-rule="nonzero"/></clipPath><clipPath id="335412f583"><path d="M 22.867188 17.347656 L 640.113281 17.347656 C 648.792969 17.347656 655.828125 24.382812 655.828125 33.0625 L 655.828125 200.816406 C 655.828125 209.496094 648.792969 216.53125 640.113281 216.53125 L 22.867188 216.53125 C 14.1875 216.53125 7.152344 209.496094 7.152344 200.816406 L 7.152344 33.0625 C 7.152344 24.382812 14.1875 17.347656 22.867188 17.347656 Z M 22.867188 17.347656 " clip-rule="nonzero"/></clipPath><clipPath id="2313a18595"><path d="M 53.886719 70.761719 L 187.402344 70.761719 L 187.402344 163.121094 L 53.886719 163.121094 Z M 53.886719 70.761719 " clip-rule="nonzero"/></clipPath><clipPath id="bc79c3fd37"><path d="M 209.28125 70.761719 L 262.890625 70.761719 L 262.890625 163.121094 L 209.28125 163.121094 Z M 209.28125 70.761719 " clip-rule="nonzero"/></clipPath><clipPath id="59e943f2ec"><path d="M 289.808594 70.761719 L 343.421875 70.761719 L 343.421875 163.121094 L 289.808594 163.121094 Z M 289.808594 70.761719 " clip-rule="nonzero"/></clipPath><clipPath id="0b3461bc69"><path d="M 370.484375 70.761719 L 424.097656 70.761719 L 424.097656 163.121094 L 370.484375 163.121094 Z M 370.484375 70.761719 " clip-rule="nonzero"/></clipPath><clipPath id="c87613e59d"><path d="M 519.898438 70.761719 L 573.511719 70.761719 L 573.511719 163.121094 L 519.898438 163.121094 Z M 519.898438 70.761719 " clip-rule="nonzero"/></clipPath><clipPath id="d8428cf342"><path d="M 445.335938 70.761719 L 498.949219 70.761719 L 498.949219 163.121094 L 445.335938 163.121094 Z M 445.335938 70.761719 " clip-rule="nonzero"/></clipPath><clipPath id="8c53b847dc"><path d="M 582.292969 70.761719 L 603.695312 70.761719 L 603.695312 163.121094 L 582.292969 163.121094 Z M 582.292969 70.761719 " clip-rule="nonzero"/></clipPath><clipPath id="ec40e391b0"><path d="M 365.246094 64.109375 L 579.253906 64.109375 L 579.253906 169.617188 L 365.246094 169.617188 Z M 365.246094 64.109375 " clip-rule="nonzero"/></clipPath><clipPath id="5100f09a54"><path d="M 373.476562 64.109375 L 571.175781 64.109375 C 573.359375 64.109375 575.453125 64.976562 576.996094 66.523438 C 578.539062 68.066406 579.40625 70.160156 579.40625 72.339844 L 579.40625 161.539062 C 579.40625 163.722656 578.539062 165.8125 576.996094 167.359375 C 575.453125 168.902344 573.359375 169.769531 571.175781 169.769531 L 373.476562 169.769531 C 371.292969 169.769531 369.199219 168.902344 367.65625 167.359375 C 366.113281 165.8125 365.246094 163.722656 365.246094 161.539062 L 365.246094 72.339844 C 365.246094 70.160156 366.113281 68.066406 367.65625 66.523438 C 369.199219 64.976562 371.292969 64.109375 373.476562 64.109375 Z M 373.476562 64.109375 " clip-rule="nonzero"/></clipPath><clipPath id="07ee9c0746"><path d="M 365.246094 56.476562 L 469.996094 56.476562 L 469.996094 78.066406 L 365.246094 78.066406 Z M 365.246094 56.476562 " clip-rule="nonzero"/></clipPath><clipPath id="f7d28a7305"><path d="M 7.152344 6.789062 L 182.898438 6.789062 L 182.898438 37.207031 L 7.152344 37.207031 Z M 7.152344 6.789062 " clip-rule="nonzero"/></clipPath><clipPath id="c6a4e1d3ac"><path d="M 197.074219 46.347656 L 579.4375 46.347656 L 579.4375 187.773438 L 197.074219 187.773438 Z M 197.074219 46.347656 " clip-rule="nonzero"/></clipPath><clipPath id="b2884bf5d7"><path d="M 212.789062 46.347656 L 563.683594 46.347656 C 572.363281 46.347656 579.398438 53.382812 579.398438 62.058594 L 579.398438 171.8125 C 579.398438 180.492188 572.363281 187.527344 563.683594 187.527344 L 212.789062 187.527344 C 204.109375 187.527344 197.074219 180.492188 197.074219 171.8125 L 197.074219 62.058594 C 197.074219 53.382812 204.109375 46.347656 212.789062 46.347656 Z M 212.789062 46.347656 " clip-rule="nonzero"/></clipPath><clipPath id="df4a2be614"><path d="M 197.066406 37.207031 L 324.964844 37.207031 L 324.964844 64.109375 L 197.066406 64.109375 Z M 197.066406 37.207031 " clip-rule="nonzero"/></clipPath></defs><g clip-path="url(#6d3b643821)"><g clip-path="url(#5d8a410d1f)"><path fill="#ffffff" d="M 7.152344 17.347656 L 656.054688 17.347656 L 656.054688 216.53125 L 7.152344 216.53125 Z M 7.152344 17.347656 " fill-opacity="1" fill-rule="nonzero"/></g></g><g clip-path="url(#ed595c3afb)"><g clip-path="url(#335412f583)"><path stroke-linecap="butt" transform="matrix(0.74828, 0, 0, 0.74828, 7.151583, 17.349131)" fill="none" stroke-linejoin="miter" d="M 21.002311 -0.00197106 L 845.889103 -0.00197106 C 857.488625 -0.00197106 866.890398 9.399802 866.890398 20.999324 L 866.890398 245.185403 C 866.890398 256.784924 857.488625 266.186697 845.889103 266.186697 L 21.002311 266.186697 C 9.402789 266.186697 0.00101659 256.784924 0.00101659 245.185403 L 0.00101659 20.999324 C 0.00101659 9.399802 9.402789 -0.00197106 21.002311 -0.00197106 Z M 21.002311 -0.00197106 " stroke="#d9d9d9" stroke-width="8" stroke-opacity="1" stroke-miterlimit="4"/></g></g><g clip-path="url(#2313a18595)"><path fill="#fff1f1" d="M 53.886719 70.761719 L 187.371094 70.761719 L 187.371094 163.121094 L 53.886719 163.121094 Z M 53.886719 70.761719 " fill-opacity="1" fill-rule="nonzero"/></g><g clip-path="url(#bc79c3fd37)"><path fill="#fff1f1" d="M 209.28125 70.761719 L 262.894531 70.761719 L 262.894531 163.117188 L 209.28125 163.117188 Z M 209.28125 70.761719 " fill-opacity="1" fill-rule="nonzero"/></g><g clip-path="url(#59e943f2ec)"><path fill="#fff1f1" d="M 289.808594 70.761719 L 343.421875 70.761719 L 343.421875 163.117188 L 289.808594 163.117188 Z M 289.808594 70.761719 " fill-opacity="1" fill-rule="nonzero"/></g><g clip-path="url(#0b3461bc69)"><path fill="#fff1f1" d="M 370.484375 70.761719 L 424.097656 70.761719 L 424.097656 163.117188 L 370.484375 163.117188 Z M 370.484375 70.761719 " fill-opacity="1" fill-rule="nonzero"/></g><g clip-path="url(#c87613e59d)"><path fill="#fff1f1" d="M 519.898438 70.761719 L 573.511719 70.761719 L 573.511719 163.117188 L 519.898438 163.117188 Z M 519.898438 70.761719 " fill-opacity="1" fill-rule="nonzero"/></g><g clip-path="url(#d8428cf342)"><path fill="#fff1f1" d="M 445.335938 70.761719 L 498.949219 70.761719 L 498.949219 163.117188 L 445.335938 163.117188 Z M 445.335938 70.761719 " fill-opacity="1" fill-rule="nonzero"/></g><g clip-path="url(#8c53b847dc)"><path fill="#fff1f1" d="M 582.292969 70.761719 L 603.695312 70.761719 L 603.695312 163.136719 L 582.292969 163.136719 Z M 582.292969 70.761719 " fill-opacity="1" fill-rule="nonzero"/></g><g fill="#8f58fd" fill-opacity="1"><g transform="translate(61.596191, 141.383013)"><g><path d="M 5.21875 -4.4375 L 16.9375 -4.4375 L 16.9375 -43.796875 L 5.21875 -43.796875 L 5.21875 -48.234375 L 22.15625 -48.234375 L 22.15625 -4.4375 L 33.890625 -4.4375 L 33.890625 0 L 5.21875 0 Z M 5.21875 -4.4375 "/></g></g></g><g fill="#8f58fd" fill-opacity="1"><g transform="translate(100.698043, 141.383013)"><g><path d="M 20.140625 0.78125 C 17.703125 0.78125 15.515625 0.367188 13.578125 -0.453125 C 11.648438 -1.273438 10 -2.457031 8.625 -4 C 7.257812 -5.550781 6.207031 -7.398438 5.46875 -9.546875 C 4.726562 -11.703125 4.359375 -14.101562 4.359375 -16.75 C 4.359375 -19.445312 4.738281 -21.878906 5.5 -24.046875 C 6.257812 -26.222656 7.3125 -28.082031 8.65625 -29.625 C 10.007812 -31.164062 11.628906 -32.347656 13.515625 -33.171875 C 15.410156 -33.992188 17.507812 -34.40625 19.8125 -34.40625 C 22.070312 -34.40625 24.125 -33.992188 25.96875 -33.171875 C 27.8125 -32.347656 29.382812 -31.207031 30.6875 -29.75 C 32 -28.289062 33 -26.5625 33.6875 -24.5625 C 34.382812 -22.570312 34.734375 -20.378906 34.734375 -17.984375 L 34.734375 -15.515625 L 9.84375 -15.515625 L 9.84375 -13.953125 C 9.84375 -12.472656 10.082031 -11.101562 10.5625 -9.84375 C 11.039062 -8.582031 11.722656 -7.492188 12.609375 -6.578125 C 13.503906 -5.671875 14.59375 -4.96875 15.875 -4.46875 C 17.15625 -3.96875 18.578125 -3.71875 20.140625 -3.71875 C 22.398438 -3.71875 24.351562 -4.238281 26 -5.28125 C 27.65625 -6.320312 28.914062 -7.753906 29.78125 -9.578125 L 33.625 -6.96875 C 32.625 -4.707031 30.960938 -2.847656 28.640625 -1.390625 C 26.316406 0.0546875 23.484375 0.78125 20.140625 0.78125 Z M 19.8125 -30.109375 C 18.375 -30.109375 17.046875 -29.847656 15.828125 -29.328125 C 14.617188 -28.804688 13.566406 -28.085938 12.671875 -27.171875 C 11.785156 -26.265625 11.09375 -25.191406 10.59375 -23.953125 C 10.09375 -22.710938 9.84375 -21.351562 9.84375 -19.875 L 9.84375 -19.421875 L 29.125 -19.421875 L 29.125 -20.140625 C 29.125 -21.617188 28.894531 -22.960938 28.4375 -24.171875 C 27.988281 -25.390625 27.363281 -26.441406 26.5625 -27.328125 C 25.757812 -28.222656 24.78125 -28.910156 23.625 -29.390625 C 22.46875 -29.867188 21.195312 -30.109375 19.8125 -30.109375 Z M 19.8125 -30.109375 "/></g></g></g><g fill="#8f58fd" fill-opacity="1"><g transform="translate(139.799895, 141.383013)"><g><path d="M 21.1875 0 C 18.613281 0 16.726562 -0.710938 15.53125 -2.140625 C 14.34375 -3.578125 13.75 -5.425781 13.75 -7.6875 L 13.75 -29.203125 L 2.546875 -29.203125 L 2.546875 -33.625 L 10.890625 -33.625 C 12.015625 -33.625 12.804688 -33.851562 13.265625 -34.3125 C 13.722656 -34.769531 13.953125 -35.5625 13.953125 -36.6875 L 13.953125 -45.484375 L 18.96875 -45.484375 L 18.96875 -33.625 L 34.28125 -33.625 L 34.28125 -29.203125 L 18.96875 -29.203125 L 18.96875 -4.4375 L 34.28125 -4.4375 L 34.28125 0 Z M 21.1875 0 "/></g></g></g><g fill="#000000" fill-opacity="1"><g transform="translate(178.909938, 141.383013)"><g/></g></g><g fill="#545454" fill-opacity="1"><g transform="translate(218.014525, 141.383013)"><g><path d="M 32.265625 0 C 30.222656 0 28.765625 -0.519531 27.890625 -1.5625 C 27.023438 -2.601562 26.484375 -3.90625 26.265625 -5.46875 L 25.9375 -5.46875 C 25.195312 -3.519531 24.007812 -1.988281 22.375 -0.875 C 20.75 0.226562 18.570312 0.78125 15.84375 0.78125 C 12.320312 0.78125 9.515625 -0.128906 7.421875 -1.953125 C 5.335938 -3.773438 4.296875 -6.273438 4.296875 -9.453125 C 4.296875 -12.578125 5.4375 -14.984375 7.71875 -16.671875 C 10 -18.367188 13.679688 -19.21875 18.765625 -19.21875 L 25.9375 -19.21875 L 25.9375 -22.546875 C 25.9375 -25.023438 25.238281 -26.882812 23.84375 -28.125 C 22.457031 -29.363281 20.484375 -29.984375 17.921875 -29.984375 C 15.660156 -29.984375 13.8125 -29.535156 12.375 -28.640625 C 10.945312 -27.753906 9.796875 -26.550781 8.921875 -25.03125 L 5.40625 -27.640625 C 5.84375 -28.503906 6.429688 -29.347656 7.171875 -30.171875 C 7.910156 -30.992188 8.820312 -31.71875 9.90625 -32.34375 C 10.988281 -32.976562 12.222656 -33.476562 13.609375 -33.84375 C 15.003906 -34.21875 16.550781 -34.40625 18.25 -34.40625 C 22.195312 -34.40625 25.332031 -33.40625 27.65625 -31.40625 C 29.988281 -29.414062 31.15625 -26.640625 31.15625 -23.078125 L 31.15625 -4.5625 L 35.84375 -4.5625 L 35.84375 0 Z M 16.75 -3.578125 C 18.09375 -3.578125 19.316406 -3.738281 20.421875 -4.0625 C 21.535156 -4.394531 22.503906 -4.832031 23.328125 -5.375 C 24.148438 -5.914062 24.789062 -6.566406 25.25 -7.328125 C 25.707031 -8.085938 25.9375 -8.90625 25.9375 -9.78125 L 25.9375 -15.3125 L 18.765625 -15.3125 C 15.640625 -15.3125 13.359375 -14.875 11.921875 -14 C 10.492188 -13.132812 9.78125 -11.878906 9.78125 -10.234375 L 9.78125 -8.859375 C 9.78125 -7.117188 10.394531 -5.800781 11.625 -4.90625 C 12.863281 -4.019531 14.570312 -3.578125 16.75 -3.578125 Z M 16.75 -3.578125 "/></g></g></g><g fill="#000000" fill-opacity="1"><g transform="translate(257.119103, 141.383013)"><g/></g></g><g fill="#8c52ff" fill-opacity="1"><g transform="translate(296.22369, 141.383013)"><g><path d="M 4.046875 -24.25 L 4.046875 -28.671875 L 35.0625 -28.671875 L 35.0625 -24.25 Z M 4.046875 -11.203125 L 4.046875 -15.640625 L 35.0625 -15.640625 L 35.0625 -11.203125 Z M 4.046875 -11.203125 "/></g></g></g><g fill="#000000" fill-opacity="1"><g transform="translate(335.328268, 141.383013)"><g/></g></g><g fill="#e15555" fill-opacity="1"><g transform="translate(374.432855, 141.383013)"><g><path d="M 5.546875 0 L 5.546875 -4.75 L 18.578125 -4.75 L 18.578125 -41.453125 L 18.125 -41.453125 L 6.640625 -30.765625 L 3.453125 -34.21875 L 15.515625 -45.484375 L 24.046875 -45.484375 L 24.046875 -4.75 L 36.046875 -4.75 L 36.046875 0 Z M 5.546875 0 "/></g></g></g><g fill="#000000" fill-opacity="1"><g transform="translate(413.537432, 141.383013)"><g/></g></g><g fill="#8c52ff" fill-opacity="1"><g transform="translate(452.642019, 141.383013)"><g><path d="M 17.078125 -4.046875 L 17.078125 -17.65625 L 4.046875 -17.65625 L 4.046875 -22.09375 L 17.078125 -22.09375 L 17.078125 -35.71875 L 22.03125 -35.71875 L 22.03125 -22.09375 L 35.0625 -22.09375 L 35.0625 -17.65625 L 22.03125 -17.65625 L 22.03125 -4.046875 Z M 17.078125 -4.046875 "/></g></g></g><g fill="#000000" fill-opacity="1"><g transform="translate(491.746597, 141.383013)"><g/></g></g><g fill="#e15555" fill-opacity="1"><g transform="translate(530.851184, 141.383013)"><g><path d="M 35 0 L 4.625 0 L 4.625 -5.609375 L 19.8125 -19.296875 C 22.03125 -21.285156 23.851562 -23.332031 25.28125 -25.4375 C 26.71875 -27.550781 27.4375 -29.78125 27.4375 -32.125 L 27.4375 -32.90625 C 27.4375 -35.644531 26.71875 -37.765625 25.28125 -39.265625 C 23.851562 -40.765625 21.726562 -41.515625 18.90625 -41.515625 C 16.125 -41.515625 13.984375 -40.804688 12.484375 -39.390625 C 10.984375 -37.984375 9.863281 -36.109375 9.125 -33.765625 L 4.234375 -35.578125 C 4.671875 -36.929688 5.269531 -38.25 6.03125 -39.53125 C 6.789062 -40.8125 7.753906 -41.953125 8.921875 -42.953125 C 10.097656 -43.953125 11.519531 -44.753906 13.1875 -45.359375 C 14.863281 -45.960938 16.8125 -46.265625 19.03125 -46.265625 C 21.289062 -46.265625 23.300781 -45.9375 25.0625 -45.28125 C 26.820312 -44.632812 28.296875 -43.722656 29.484375 -42.546875 C 30.679688 -41.378906 31.59375 -39.988281 32.21875 -38.375 C 32.851562 -36.769531 33.171875 -35.015625 33.171875 -33.109375 C 33.171875 -31.367188 32.921875 -29.738281 32.421875 -28.21875 C 31.921875 -26.695312 31.222656 -25.238281 30.328125 -23.84375 C 29.441406 -22.457031 28.378906 -21.101562 27.140625 -19.78125 C 25.898438 -18.457031 24.519531 -17.144531 23 -15.84375 L 10.296875 -4.75 L 35 -4.75 Z M 35 0 "/></g></g></g><g fill="#545454" fill-opacity="1"><g transform="translate(569.955762, 141.383013)"><g><path d="M 16.75 -8.859375 L 25.15625 -8.859375 L 17.65625 9.1875 L 13.296875 9.1875 Z M 19.546875 -25.21875 C 17.765625 -25.21875 16.515625 -25.585938 15.796875 -26.328125 C 15.085938 -27.066406 14.734375 -28.003906 14.734375 -29.140625 L 14.734375 -30.3125 C 14.734375 -31.4375 15.085938 -32.367188 15.796875 -33.109375 C 16.515625 -33.847656 17.765625 -34.21875 19.546875 -34.21875 C 21.328125 -34.21875 22.578125 -33.847656 23.296875 -33.109375 C 24.015625 -32.367188 24.375 -31.4375 24.375 -30.3125 L 24.375 -29.140625 C 24.375 -28.003906 24.015625 -27.066406 23.296875 -26.328125 C 22.578125 -25.585938 21.328125 -25.21875 19.546875 -25.21875 Z M 19.546875 -25.21875 "/></g></g></g><g clip-path="url(#ec40e391b0)"><g clip-path="url(#5100f09a54)"><path stroke-linecap="butt" transform="matrix(0.74828, 0, 0, 0.74828, 365.245697, 64.110812)" fill="none" stroke-linejoin="miter" d="M 10.999716 -0.00192025 L 275.204668 -0.00192025 C 278.12282 -0.00192025 280.920904 1.156988 282.982925 3.224229 C 285.044947 5.286251 286.203855 8.084335 286.203855 10.997266 L 286.203855 130.202974 C 286.203855 133.121126 285.044947 135.91399 282.982925 137.981231 C 280.920904 140.043252 278.12282 141.202161 275.204668 141.202161 L 10.999716 141.202161 C 8.081565 141.202161 5.28348 140.043252 3.221459 137.981231 C 1.159438 135.91399 0.00052989 133.121126 0.00052989 130.202974 L 0.00052989 10.997266 C 0.00052989 8.084335 1.159438 5.286251 3.221459 3.224229 C 5.28348 1.156988 8.081565 -0.00192025 10.999716 -0.00192025 Z M 10.999716 -0.00192025 " stroke="#d9d9d9" stroke-width="8" stroke-opacity="1" stroke-miterlimit="4"/></g></g><g clip-path="url(#07ee9c0746)"><path fill="#d9d9d9" d="M 365.246094 56.476562 L 469.992188 56.476562 L 469.992188 78.066406 L 365.246094 78.066406 Z M 365.246094 56.476562 " fill-opacity="1" fill-rule="nonzero"/></g><g clip-path="url(#f7d28a7305)"><path fill="#d9d9d9" d="M 7.152344 6.789062 L 182.886719 6.789062 L 182.886719 37.207031 L 7.152344 37.207031 Z M 7.152344 6.789062 " fill-opacity="1" fill-rule="nonzero"/></g><g fill="#000000" fill-opacity="1"><g transform="translate(10.442984, 29.417776)"><g><path d="M 1.953125 0 L 1.953125 -14.625 L 3.703125 -14.625 L 3.703125 -1.546875 L 9.9375 -1.546875 L 9.9375 0 Z M 1.953125 0 "/></g></g></g><g fill="#000000" fill-opacity="1"><g transform="translate(20.939082, 29.417776)"><g><path d="M 5.84375 0.25 C 5.101562 0.25 4.4375 0.117188 3.84375 -0.140625 C 3.25 -0.410156 2.738281 -0.789062 2.3125 -1.28125 C 1.882812 -1.78125 1.554688 -2.375 1.328125 -3.0625 C 1.097656 -3.757812 0.984375 -4.539062 0.984375 -5.40625 C 0.984375 -6.257812 1.097656 -7.035156 1.328125 -7.734375 C 1.554688 -8.429688 1.882812 -9.023438 2.3125 -9.515625 C 2.738281 -10.015625 3.25 -10.394531 3.84375 -10.65625 C 4.4375 -10.925781 5.101562 -11.0625 5.84375 -11.0625 C 6.570312 -11.0625 7.222656 -10.925781 7.796875 -10.65625 C 8.367188 -10.394531 8.859375 -10.03125 9.265625 -9.5625 C 9.671875 -9.09375 9.976562 -8.535156 10.1875 -7.890625 C 10.40625 -7.253906 10.515625 -6.550781 10.515625 -5.78125 L 10.515625 -4.984375 L 2.75 -4.984375 L 2.75 -4.484375 C 2.75 -4.023438 2.820312 -3.59375 2.96875 -3.1875 C 3.113281 -2.789062 3.320312 -2.445312 3.59375 -2.15625 C 3.863281 -1.863281 4.195312 -1.632812 4.59375 -1.46875 C 5 -1.300781 5.453125 -1.21875 5.953125 -1.21875 C 6.640625 -1.21875 7.234375 -1.375 7.734375 -1.6875 C 8.242188 -2.007812 8.640625 -2.472656 8.921875 -3.078125 L 10.125 -2.21875 C 9.769531 -1.476562 9.222656 -0.878906 8.484375 -0.421875 C 7.742188 0.0234375 6.863281 0.25 5.84375 0.25 Z M 5.84375 -9.65625 C 5.382812 -9.65625 4.960938 -9.570312 4.578125 -9.40625 C 4.203125 -9.25 3.878906 -9.023438 3.609375 -8.734375 C 3.335938 -8.441406 3.125 -8.097656 2.96875 -7.703125 C 2.820312 -7.304688 2.75 -6.867188 2.75 -6.390625 L 2.75 -6.25 L 8.71875 -6.25 L 8.71875 -6.46875 C 8.71875 -7.4375 8.453125 -8.207031 7.921875 -8.78125 C 7.398438 -9.363281 6.707031 -9.65625 5.84375 -9.65625 Z M 5.84375 -9.65625 "/></g></g></g><g fill="#000000" fill-opacity="1"><g transform="translate(32.44079, 29.417776)"><g><path d="M 4.171875 0 C 3.585938 0 3.144531 -0.160156 2.84375 -0.484375 C 2.539062 -0.816406 2.390625 -1.25 2.390625 -1.78125 L 2.390625 -9.34375 L 0.609375 -9.34375 L 0.609375 -10.8125 L 1.609375 -10.8125 C 1.972656 -10.8125 2.222656 -10.882812 2.359375 -11.03125 C 2.492188 -11.175781 2.5625 -11.429688 2.5625 -11.796875 L 2.5625 -13.8125 L 4.0625 -13.8125 L 4.0625 -10.8125 L 6.4375 -10.8125 L 6.4375 -9.34375 L 4.0625 -9.34375 L 4.0625 -1.46875 L 6.265625 -1.46875 L 6.265625 0 Z M 4.171875 0 "/></g></g></g><g fill="#000000" fill-opacity="1"><g transform="translate(39.794344, 29.417776)"><g/></g></g><g fill="#000000" fill-opacity="1"><g transform="translate(44.738614, 29.417776)"><g><path d="M 6.0625 0.25 C 4.875 0.25 3.859375 0.0234375 3.015625 -0.421875 C 2.179688 -0.878906 1.46875 -1.507812 0.875 -2.3125 L 2.171875 -3.390625 C 2.691406 -2.710938 3.265625 -2.191406 3.890625 -1.828125 C 4.523438 -1.472656 5.269531 -1.296875 6.125 -1.296875 C 7.164062 -1.296875 7.960938 -1.546875 8.515625 -2.046875 C 9.066406 -2.554688 9.34375 -3.226562 9.34375 -4.0625 C 9.34375 -4.757812 9.132812 -5.296875 8.71875 -5.671875 C 8.300781 -6.054688 7.609375 -6.359375 6.640625 -6.578125 L 5.453125 -6.859375 C 4.109375 -7.160156 3.082031 -7.617188 2.375 -8.234375 C 1.664062 -8.859375 1.3125 -9.738281 1.3125 -10.875 C 1.3125 -11.519531 1.429688 -12.09375 1.671875 -12.59375 C 1.910156 -13.09375 2.242188 -13.507812 2.671875 -13.84375 C 3.097656 -14.1875 3.609375 -14.441406 4.203125 -14.609375 C 4.796875 -14.785156 5.445312 -14.875 6.15625 -14.875 C 7.257812 -14.875 8.207031 -14.671875 9 -14.265625 C 9.789062 -13.859375 10.457031 -13.265625 11 -12.484375 L 9.6875 -11.53125 C 9.28125 -12.082031 8.789062 -12.519531 8.21875 -12.84375 C 7.644531 -13.164062 6.929688 -13.328125 6.078125 -13.328125 C 5.140625 -13.328125 4.398438 -13.125 3.859375 -12.71875 C 3.328125 -12.320312 3.0625 -11.726562 3.0625 -10.9375 C 3.0625 -10.238281 3.285156 -9.710938 3.734375 -9.359375 C 4.191406 -9.003906 4.878906 -8.71875 5.796875 -8.5 L 7 -8.234375 C 8.4375 -7.910156 9.472656 -7.421875 10.109375 -6.765625 C 10.753906 -6.109375 11.078125 -5.238281 11.078125 -4.15625 C 11.078125 -3.476562 10.960938 -2.867188 10.734375 -2.328125 C 10.503906 -1.785156 10.171875 -1.320312 9.734375 -0.9375 C 9.304688 -0.5625 8.78125 -0.269531 8.15625 -0.0625 C 7.539062 0.144531 6.84375 0.25 6.0625 0.25 Z M 6.0625 0.25 "/></g></g></g><g fill="#000000" fill-opacity="1"><g transform="translate(56.910724, 29.417776)"><g><path d="M 4.171875 0 C 3.585938 0 3.144531 -0.160156 2.84375 -0.484375 C 2.539062 -0.816406 2.390625 -1.25 2.390625 -1.78125 L 2.390625 -9.34375 L 0.609375 -9.34375 L 0.609375 -10.8125 L 1.609375 -10.8125 C 1.972656 -10.8125 2.222656 -10.882812 2.359375 -11.03125 C 2.492188 -11.175781 2.5625 -11.429688 2.5625 -11.796875 L 2.5625 -13.8125 L 4.0625 -13.8125 L 4.0625 -10.8125 L 6.4375 -10.8125 L 6.4375 -9.34375 L 4.0625 -9.34375 L 4.0625 -1.46875 L 6.265625 -1.46875 L 6.265625 0 Z M 4.171875 0 "/></g></g></g><g fill="#000000" fill-opacity="1"><g transform="translate(64.264279, 29.417776)"><g><path d="M 9.640625 0 C 9.015625 0 8.5625 -0.164062 8.28125 -0.5 C 8.007812 -0.832031 7.84375 -1.253906 7.78125 -1.765625 L 7.671875 -1.765625 C 7.429688 -1.085938 7.035156 -0.582031 6.484375 -0.25 C 5.941406 0.0820312 5.296875 0.25 4.546875 0.25 C 3.398438 0.25 2.507812 -0.0390625 1.875 -0.625 C 1.238281 -1.21875 0.921875 -2.015625 0.921875 -3.015625 C 0.921875 -4.035156 1.289062 -4.816406 2.03125 -5.359375 C 2.78125 -5.910156 3.945312 -6.1875 5.53125 -6.1875 L 7.671875 -6.1875 L 7.671875 -7.25 C 7.671875 -8.019531 7.457031 -8.609375 7.03125 -9.015625 C 6.613281 -9.421875 5.972656 -9.625 5.109375 -9.625 C 4.453125 -9.625 3.90625 -9.472656 3.46875 -9.171875 C 3.03125 -8.878906 2.664062 -8.488281 2.375 -8 L 1.359375 -8.953125 C 1.648438 -9.535156 2.117188 -10.03125 2.765625 -10.4375 C 3.410156 -10.851562 4.222656 -11.0625 5.203125 -11.0625 C 6.515625 -11.0625 7.53125 -10.738281 8.25 -10.09375 C 8.976562 -9.457031 9.34375 -8.566406 9.34375 -7.421875 L 9.34375 -1.46875 L 10.578125 -1.46875 L 10.578125 0 Z M 4.8125 -1.171875 C 5.238281 -1.171875 5.625 -1.21875 5.96875 -1.3125 C 6.320312 -1.414062 6.625 -1.554688 6.875 -1.734375 C 7.125 -1.921875 7.316406 -2.128906 7.453125 -2.359375 C 7.597656 -2.597656 7.671875 -2.859375 7.671875 -3.140625 L 7.671875 -4.921875 L 5.453125 -4.921875 C 4.484375 -4.921875 3.78125 -4.78125 3.34375 -4.5 C 2.90625 -4.21875 2.6875 -3.816406 2.6875 -3.296875 L 2.6875 -2.84375 C 2.6875 -2.3125 2.875 -1.898438 3.25 -1.609375 C 3.632812 -1.316406 4.15625 -1.171875 4.8125 -1.171875 Z M 4.8125 -1.171875 "/></g></g></g><g fill="#000000" fill-opacity="1"><g transform="translate(75.451731, 29.417776)"><g><path d="M 4.171875 0 C 3.585938 0 3.144531 -0.160156 2.84375 -0.484375 C 2.539062 -0.816406 2.390625 -1.25 2.390625 -1.78125 L 2.390625 -9.34375 L 0.609375 -9.34375 L 0.609375 -10.8125 L 1.609375 -10.8125 C 1.972656 -10.8125 2.222656 -10.882812 2.359375 -11.03125 C 2.492188 -11.175781 2.5625 -11.429688 2.5625 -11.796875 L 2.5625 -13.8125 L 4.0625 -13.8125 L 4.0625 -10.8125 L 6.4375 -10.8125 L 6.4375 -9.34375 L 4.0625 -9.34375 L 4.0625 -1.46875 L 6.265625 -1.46875 L 6.265625 0 Z M 4.171875 0 "/></g></g></g><g fill="#000000" fill-opacity="1"><g transform="translate(82.805285, 29.417776)"><g><path d="M 5.84375 0.25 C 5.101562 0.25 4.4375 0.117188 3.84375 -0.140625 C 3.25 -0.410156 2.738281 -0.789062 2.3125 -1.28125 C 1.882812 -1.78125 1.554688 -2.375 1.328125 -3.0625 C 1.097656 -3.757812 0.984375 -4.539062 0.984375 -5.40625 C 0.984375 -6.257812 1.097656 -7.035156 1.328125 -7.734375 C 1.554688 -8.429688 1.882812 -9.023438 2.3125 -9.515625 C 2.738281 -10.015625 3.25 -10.394531 3.84375 -10.65625 C 4.4375 -10.925781 5.101562 -11.0625 5.84375 -11.0625 C 6.570312 -11.0625 7.222656 -10.925781 7.796875 -10.65625 C 8.367188 -10.394531 8.859375 -10.03125 9.265625 -9.5625 C 9.671875 -9.09375 9.976562 -8.535156 10.1875 -7.890625 C 10.40625 -7.253906 10.515625 -6.550781 10.515625 -5.78125 L 10.515625 -4.984375 L 2.75 -4.984375 L 2.75 -4.484375 C 2.75 -4.023438 2.820312 -3.59375 2.96875 -3.1875 C 3.113281 -2.789062 3.320312 -2.445312 3.59375 -2.15625 C 3.863281 -1.863281 4.195312 -1.632812 4.59375 -1.46875 C 5 -1.300781 5.453125 -1.21875 5.953125 -1.21875 C 6.640625 -1.21875 7.234375 -1.375 7.734375 -1.6875 C 8.242188 -2.007812 8.640625 -2.472656 8.921875 -3.078125 L 10.125 -2.21875 C 9.769531 -1.476562 9.222656 -0.878906 8.484375 -0.421875 C 7.742188 0.0234375 6.863281 0.25 5.84375 0.25 Z M 5.84375 -9.65625 C 5.382812 -9.65625 4.960938 -9.570312 4.578125 -9.40625 C 4.203125 -9.25 3.878906 -9.023438 3.609375 -8.734375 C 3.335938 -8.441406 3.125 -8.097656 2.96875 -7.703125 C 2.820312 -7.304688 2.75 -6.867188 2.75 -6.390625 L 2.75 -6.25 L 8.71875 -6.25 L 8.71875 -6.46875 C 8.71875 -7.4375 8.453125 -8.207031 7.921875 -8.78125 C 7.398438 -9.363281 6.707031 -9.65625 5.84375 -9.65625 Z M 5.84375 -9.65625 "/></g></g></g><g fill="#000000" fill-opacity="1"><g transform="translate(94.306993, 29.417776)"><g><path d="M 1.78125 0 L 1.78125 -10.8125 L 3.453125 -10.8125 L 3.453125 -9.046875 L 3.546875 -9.046875 C 3.671875 -9.328125 3.8125 -9.585938 3.96875 -9.828125 C 4.132812 -10.078125 4.332031 -10.289062 4.5625 -10.46875 C 4.789062 -10.65625 5.054688 -10.800781 5.359375 -10.90625 C 5.671875 -11.007812 6.035156 -11.0625 6.453125 -11.0625 C 7.160156 -11.0625 7.816406 -10.890625 8.421875 -10.546875 C 9.023438 -10.203125 9.472656 -9.640625 9.765625 -8.859375 L 9.8125 -8.859375 C 10 -9.453125 10.363281 -9.96875 10.90625 -10.40625 C 11.445312 -10.84375 12.175781 -11.0625 13.09375 -11.0625 C 14.195312 -11.0625 15.054688 -10.703125 15.671875 -9.984375 C 16.296875 -9.265625 16.609375 -8.25 16.609375 -6.9375 L 16.609375 0 L 14.9375 0 L 14.9375 -6.640625 C 14.9375 -7.609375 14.75 -8.332031 14.375 -8.8125 C 14 -9.300781 13.398438 -9.546875 12.578125 -9.546875 C 12.234375 -9.546875 11.910156 -9.503906 11.609375 -9.421875 C 11.316406 -9.335938 11.050781 -9.210938 10.8125 -9.046875 C 10.570312 -8.878906 10.378906 -8.664062 10.234375 -8.40625 C 10.097656 -8.15625 10.03125 -7.851562 10.03125 -7.5 L 10.03125 0 L 8.359375 0 L 8.359375 -6.640625 C 8.359375 -7.609375 8.171875 -8.332031 7.796875 -8.8125 C 7.421875 -9.300781 6.832031 -9.546875 6.03125 -9.546875 C 5.695312 -9.546875 5.375 -9.503906 5.0625 -9.421875 C 4.757812 -9.335938 4.488281 -9.210938 4.25 -9.046875 C 4.007812 -8.878906 3.816406 -8.664062 3.671875 -8.40625 C 3.523438 -8.15625 3.453125 -7.851562 3.453125 -7.5 L 3.453125 0 Z M 1.78125 0 "/></g></g></g><g fill="#000000" fill-opacity="1"><g transform="translate(112.596588, 29.417776)"><g><path d="M 5.84375 0.25 C 5.101562 0.25 4.4375 0.117188 3.84375 -0.140625 C 3.25 -0.410156 2.738281 -0.789062 2.3125 -1.28125 C 1.882812 -1.78125 1.554688 -2.375 1.328125 -3.0625 C 1.097656 -3.757812 0.984375 -4.539062 0.984375 -5.40625 C 0.984375 -6.257812 1.097656 -7.035156 1.328125 -7.734375 C 1.554688 -8.429688 1.882812 -9.023438 2.3125 -9.515625 C 2.738281 -10.015625 3.25 -10.394531 3.84375 -10.65625 C 4.4375 -10.925781 5.101562 -11.0625 5.84375 -11.0625 C 6.570312 -11.0625 7.222656 -10.925781 7.796875 -10.65625 C 8.367188 -10.394531 8.859375 -10.03125 9.265625 -9.5625 C 9.671875 -9.09375 9.976562 -8.535156 10.1875 -7.890625 C 10.40625 -7.253906 10.515625 -6.550781 10.515625 -5.78125 L 10.515625 -4.984375 L 2.75 -4.984375 L 2.75 -4.484375 C 2.75 -4.023438 2.820312 -3.59375 2.96875 -3.1875 C 3.113281 -2.789062 3.320312 -2.445312 3.59375 -2.15625 C 3.863281 -1.863281 4.195312 -1.632812 4.59375 -1.46875 C 5 -1.300781 5.453125 -1.21875 5.953125 -1.21875 C 6.640625 -1.21875 7.234375 -1.375 7.734375 -1.6875 C 8.242188 -2.007812 8.640625 -2.472656 8.921875 -3.078125 L 10.125 -2.21875 C 9.769531 -1.476562 9.222656 -0.878906 8.484375 -0.421875 C 7.742188 0.0234375 6.863281 0.25 5.84375 0.25 Z M 5.84375 -9.65625 C 5.382812 -9.65625 4.960938 -9.570312 4.578125 -9.40625 C 4.203125 -9.25 3.878906 -9.023438 3.609375 -8.734375 C 3.335938 -8.441406 3.125 -8.097656 2.96875 -7.703125 C 2.820312 -7.304688 2.75 -6.867188 2.75 -6.390625 L 2.75 -6.25 L 8.71875 -6.25 L 8.71875 -6.46875 C 8.71875 -7.4375 8.453125 -8.207031 7.921875 -8.78125 C 7.398438 -9.363281 6.707031 -9.65625 5.84375 -9.65625 Z M 5.84375 -9.65625 "/></g></g></g><g fill="#000000" fill-opacity="1"><g transform="translate(124.098296, 29.417776)"><g><path d="M 1.78125 0 L 1.78125 -10.8125 L 3.453125 -10.8125 L 3.453125 -9.046875 L 3.546875 -9.046875 C 3.804688 -9.660156 4.175781 -10.148438 4.65625 -10.515625 C 5.144531 -10.878906 5.789062 -11.0625 6.59375 -11.0625 C 7.71875 -11.0625 8.601562 -10.703125 9.25 -9.984375 C 9.894531 -9.265625 10.21875 -8.25 10.21875 -6.9375 L 10.21875 0 L 8.546875 0 L 8.546875 -6.640625 C 8.546875 -8.578125 7.726562 -9.546875 6.09375 -9.546875 C 5.757812 -9.546875 5.4375 -9.503906 5.125 -9.421875 C 4.8125 -9.335938 4.523438 -9.210938 4.265625 -9.046875 C 4.015625 -8.878906 3.816406 -8.664062 3.671875 -8.40625 C 3.523438 -8.15625 3.453125 -7.851562 3.453125 -7.5 L 3.453125 0 Z M 1.78125 0 "/></g></g></g><g fill="#000000" fill-opacity="1"><g transform="translate(135.998055, 29.417776)"><g><path d="M 4.171875 0 C 3.585938 0 3.144531 -0.160156 2.84375 -0.484375 C 2.539062 -0.816406 2.390625 -1.25 2.390625 -1.78125 L 2.390625 -9.34375 L 0.609375 -9.34375 L 0.609375 -10.8125 L 1.609375 -10.8125 C 1.972656 -10.8125 2.222656 -10.882812 2.359375 -11.03125 C 2.492188 -11.175781 2.5625 -11.429688 2.5625 -11.796875 L 2.5625 -13.8125 L 4.0625 -13.8125 L 4.0625 -10.8125 L 6.4375 -10.8125 L 6.4375 -9.34375 L 4.0625 -9.34375 L 4.0625 -1.46875 L 6.265625 -1.46875 L 6.265625 0 Z M 4.171875 0 "/></g></g></g><g fill="#000000" fill-opacity="1"><g transform="translate(370.483246, 73.818149)"><g><path d="M 9.875 0 L 8.5625 -3.84375 L 3.3125 -3.84375 L 2.015625 0 L 0.421875 0 L 4.96875 -13 L 6.96875 -13 L 11.515625 0 Z M 5.984375 -11.546875 L 5.890625 -11.546875 L 3.6875 -5.21875 L 8.171875 -5.21875 Z M 5.984375 -11.546875 "/></g></g></g><g fill="#000000" fill-opacity="1"><g transform="translate(382.417424, 73.818149)"><g><path d="M 7.734375 -1.5625 L 7.65625 -1.5625 C 7.070312 -0.375 6.132812 0.21875 4.84375 0.21875 C 4.25 0.21875 3.707031 0.101562 3.21875 -0.125 C 2.738281 -0.363281 2.328125 -0.695312 1.984375 -1.125 C 1.640625 -1.5625 1.378906 -2.09375 1.203125 -2.71875 C 1.023438 -3.34375 0.9375 -4.039062 0.9375 -4.8125 C 0.9375 -5.570312 1.023438 -6.265625 1.203125 -6.890625 C 1.378906 -7.515625 1.640625 -8.039062 1.984375 -8.46875 C 2.328125 -8.90625 2.738281 -9.238281 3.21875 -9.46875 C 3.707031 -9.707031 4.25 -9.828125 4.84375 -9.828125 C 5.507812 -9.828125 6.082031 -9.679688 6.5625 -9.390625 C 7.039062 -9.097656 7.40625 -8.648438 7.65625 -8.046875 L 7.734375 -8.046875 L 7.734375 -13.78125 L 9.21875 -13.78125 L 9.21875 0 L 7.734375 0 Z M 5.25 -1.125 C 5.582031 -1.125 5.898438 -1.164062 6.203125 -1.25 C 6.515625 -1.332031 6.78125 -1.457031 7 -1.625 C 7.226562 -1.789062 7.40625 -1.992188 7.53125 -2.234375 C 7.664062 -2.484375 7.734375 -2.765625 7.734375 -3.078125 L 7.734375 -6.65625 C 7.734375 -6.914062 7.664062 -7.160156 7.53125 -7.390625 C 7.40625 -7.617188 7.226562 -7.8125 7 -7.96875 C 6.78125 -8.132812 6.515625 -8.265625 6.203125 -8.359375 C 5.898438 -8.453125 5.582031 -8.5 5.25 -8.5 C 4.40625 -8.5 3.738281 -8.234375 3.25 -7.703125 C 2.769531 -7.171875 2.53125 -6.476562 2.53125 -5.625 L 2.53125 -3.984375 C 2.53125 -3.128906 2.769531 -2.4375 3.25 -1.90625 C 3.738281 -1.382812 4.40625 -1.125 5.25 -1.125 Z M 5.25 -1.125 "/></g></g></g><g fill="#000000" fill-opacity="1"><g transform="translate(393.215896, 73.818149)"><g><path d="M 7.734375 -1.5625 L 7.65625 -1.5625 C 7.070312 -0.375 6.132812 0.21875 4.84375 0.21875 C 4.25 0.21875 3.707031 0.101562 3.21875 -0.125 C 2.738281 -0.363281 2.328125 -0.695312 1.984375 -1.125 C 1.640625 -1.5625 1.378906 -2.09375 1.203125 -2.71875 C 1.023438 -3.34375 0.9375 -4.039062 0.9375 -4.8125 C 0.9375 -5.570312 1.023438 -6.265625 1.203125 -6.890625 C 1.378906 -7.515625 1.640625 -8.039062 1.984375 -8.46875 C 2.328125 -8.90625 2.738281 -9.238281 3.21875 -9.46875 C 3.707031 -9.707031 4.25 -9.828125 4.84375 -9.828125 C 5.507812 -9.828125 6.082031 -9.679688 6.5625 -9.390625 C 7.039062 -9.097656 7.40625 -8.648438 7.65625 -8.046875 L 7.734375 -8.046875 L 7.734375 -13.78125 L 9.21875 -13.78125 L 9.21875 0 L 7.734375 0 Z M 5.25 -1.125 C 5.582031 -1.125 5.898438 -1.164062 6.203125 -1.25 C 6.515625 -1.332031 6.78125 -1.457031 7 -1.625 C 7.226562 -1.789062 7.40625 -1.992188 7.53125 -2.234375 C 7.664062 -2.484375 7.734375 -2.765625 7.734375 -3.078125 L 7.734375 -6.65625 C 7.734375 -6.914062 7.664062 -7.160156 7.53125 -7.390625 C 7.40625 -7.617188 7.226562 -7.8125 7 -7.96875 C 6.78125 -8.132812 6.515625 -8.265625 6.203125 -8.359375 C 5.898438 -8.453125 5.582031 -8.5 5.25 -8.5 C 4.40625 -8.5 3.738281 -8.234375 3.25 -7.703125 C 2.769531 -7.171875 2.53125 -6.476562 2.53125 -5.625 L 2.53125 -3.984375 C 2.53125 -3.128906 2.769531 -2.4375 3.25 -1.90625 C 3.738281 -1.382812 4.40625 -1.125 5.25 -1.125 Z M 5.25 -1.125 "/></g></g></g><g fill="#000000" fill-opacity="1"><g transform="translate(404.014368, 73.818149)"><g><path d="M 2.328125 -11.859375 C 2.003906 -11.859375 1.769531 -11.9375 1.625 -12.09375 C 1.488281 -12.25 1.421875 -12.453125 1.421875 -12.703125 L 1.421875 -12.9375 C 1.421875 -13.1875 1.488281 -13.390625 1.625 -13.546875 C 1.769531 -13.703125 2.003906 -13.78125 2.328125 -13.78125 C 2.648438 -13.78125 2.878906 -13.703125 3.015625 -13.546875 C 3.160156 -13.390625 3.234375 -13.1875 3.234375 -12.9375 L 3.234375 -12.703125 C 3.234375 -12.453125 3.160156 -12.25 3.015625 -12.09375 C 2.878906 -11.9375 2.648438 -11.859375 2.328125 -11.859375 Z M 1.578125 -9.609375 L 3.078125 -9.609375 L 3.078125 0 L 1.578125 0 Z M 1.578125 -9.609375 "/></g></g></g><g fill="#000000" fill-opacity="1"><g transform="translate(408.668877, 73.818149)"><g><path d="M 3.703125 0 C 3.179688 0 2.785156 -0.144531 2.515625 -0.4375 C 2.253906 -0.726562 2.125 -1.109375 2.125 -1.578125 L 2.125 -8.3125 L 0.546875 -8.3125 L 0.546875 -9.609375 L 1.4375 -9.609375 C 1.757812 -9.609375 1.976562 -9.671875 2.09375 -9.796875 C 2.207031 -9.929688 2.265625 -10.160156 2.265625 -10.484375 L 2.265625 -12.28125 L 3.609375 -12.28125 L 3.609375 -9.609375 L 5.71875 -9.609375 L 5.71875 -8.3125 L 3.609375 -8.3125 L 3.609375 -1.296875 L 5.5625 -1.296875 L 5.5625 0 Z M 3.703125 0 "/></g></g></g><g fill="#000000" fill-opacity="1"><g transform="translate(415.203819, 73.818149)"><g><path d="M 2.328125 -11.859375 C 2.003906 -11.859375 1.769531 -11.9375 1.625 -12.09375 C 1.488281 -12.25 1.421875 -12.453125 1.421875 -12.703125 L 1.421875 -12.9375 C 1.421875 -13.1875 1.488281 -13.390625 1.625 -13.546875 C 1.769531 -13.703125 2.003906 -13.78125 2.328125 -13.78125 C 2.648438 -13.78125 2.878906 -13.703125 3.015625 -13.546875 C 3.160156 -13.390625 3.234375 -13.1875 3.234375 -12.9375 L 3.234375 -12.703125 C 3.234375 -12.453125 3.160156 -12.25 3.015625 -12.09375 C 2.878906 -11.9375 2.648438 -11.859375 2.328125 -11.859375 Z M 1.578125 -9.609375 L 3.078125 -9.609375 L 3.078125 0 L 1.578125 0 Z M 1.578125 -9.609375 "/></g></g></g><g fill="#000000" fill-opacity="1"><g transform="translate(419.858328, 73.818149)"><g><path d="M 5.21875 0.21875 C 4.570312 0.21875 3.976562 0.101562 3.4375 -0.125 C 2.90625 -0.363281 2.453125 -0.703125 2.078125 -1.140625 C 1.703125 -1.585938 1.40625 -2.117188 1.1875 -2.734375 C 0.976562 -3.347656 0.875 -4.039062 0.875 -4.8125 C 0.875 -5.5625 0.976562 -6.242188 1.1875 -6.859375 C 1.40625 -7.484375 1.703125 -8.015625 2.078125 -8.453125 C 2.453125 -8.898438 2.90625 -9.238281 3.4375 -9.46875 C 3.976562 -9.707031 4.570312 -9.828125 5.21875 -9.828125 C 5.863281 -9.828125 6.445312 -9.707031 6.96875 -9.46875 C 7.5 -9.238281 7.957031 -8.898438 8.34375 -8.453125 C 8.726562 -8.015625 9.023438 -7.484375 9.234375 -6.859375 C 9.441406 -6.242188 9.546875 -5.5625 9.546875 -4.8125 C 9.546875 -4.039062 9.441406 -3.347656 9.234375 -2.734375 C 9.023438 -2.117188 8.726562 -1.585938 8.34375 -1.140625 C 7.957031 -0.703125 7.5 -0.363281 6.96875 -0.125 C 6.445312 0.101562 5.863281 0.21875 5.21875 0.21875 Z M 5.21875 -1.09375 C 6.019531 -1.09375 6.675781 -1.34375 7.1875 -1.84375 C 7.695312 -2.34375 7.953125 -3.097656 7.953125 -4.109375 L 7.953125 -5.5 C 7.953125 -6.507812 7.695312 -7.265625 7.1875 -7.765625 C 6.675781 -8.265625 6.019531 -8.515625 5.21875 -8.515625 C 4.40625 -8.515625 3.742188 -8.265625 3.234375 -7.765625 C 2.734375 -7.265625 2.484375 -6.507812 2.484375 -5.5 L 2.484375 -4.109375 C 2.484375 -3.097656 2.734375 -2.34375 3.234375 -1.84375 C 3.742188 -1.34375 4.40625 -1.09375 5.21875 -1.09375 Z M 5.21875 -1.09375 "/></g></g></g><g fill="#000000" fill-opacity="1"><g transform="translate(430.284443, 73.818149)"><g><path d="M 1.578125 0 L 1.578125 -9.609375 L 3.078125 -9.609375 L 3.078125 -8.046875 L 3.140625 -8.046875 C 3.378906 -8.585938 3.710938 -9.019531 4.140625 -9.34375 C 4.566406 -9.664062 5.140625 -9.828125 5.859375 -9.828125 C 6.859375 -9.828125 7.644531 -9.507812 8.21875 -8.875 C 8.800781 -8.238281 9.09375 -7.335938 9.09375 -6.171875 L 9.09375 0 L 7.59375 0 L 7.59375 -5.90625 C 7.59375 -7.632812 6.867188 -8.5 5.421875 -8.5 C 5.117188 -8.5 4.828125 -8.457031 4.546875 -8.375 C 4.273438 -8.300781 4.023438 -8.191406 3.796875 -8.046875 C 3.578125 -7.898438 3.398438 -7.710938 3.265625 -7.484375 C 3.140625 -7.253906 3.078125 -6.984375 3.078125 -6.671875 L 3.078125 0 Z M 1.578125 0 "/></g></g></g><g clip-path="url(#c6a4e1d3ac)"><g clip-path="url(#b2884bf5d7)"><path stroke-linecap="butt" transform="matrix(0.74828, 0, 0, 0.74828, 197.07511, 46.346801)" fill="none" stroke-linejoin="miter" d="M 21.000105 0.00114276 L 489.935082 0.00114276 C 501.534605 0.00114276 510.936378 9.402916 510.936378 20.997218 L 510.936378 167.67219 C 510.936378 179.271713 501.534605 188.673486 489.935082 188.673486 L 21.000105 188.673486 C 9.400582 188.673486 -0.0011908 179.271713 -0.0011908 167.67219 L -0.0011908 20.997218 C -0.0011908 9.402916 9.400582 0.00114276 21.000105 0.00114276 Z M 21.000105 0.00114276 " stroke="#d9d9d9" stroke-width="8" stroke-opacity="1" stroke-miterlimit="4"/></g></g><g clip-path="url(#df4a2be614)"><path fill="#d9d9d9" d="M 197.066406 37.207031 L 324.960938 37.207031 L 324.960938 64.109375 L 197.066406 64.109375 Z M 197.066406 37.207031 " fill-opacity="1" fill-rule="nonzero"/></g><g fill="#000000" fill-opacity="1"><g transform="translate(199.463454, 57.01883)"><g><path d="M 9.515625 0 L 8.265625 -3.703125 L 3.203125 -3.703125 L 1.9375 0 L 0.40625 0 L 4.796875 -12.53125 L 6.71875 -12.53125 L 11.09375 0 Z M 5.765625 -11.125 L 5.671875 -11.125 L 3.5625 -5.03125 L 7.875 -5.03125 Z M 5.765625 -11.125 "/></g></g></g><g fill="#000000" fill-opacity="1"><g transform="translate(210.974957, 57.01883)"><g><path d="M 4.3125 0.21875 C 3.445312 0.21875 2.722656 0.0546875 2.140625 -0.265625 C 1.566406 -0.597656 1.066406 -1.039062 0.640625 -1.59375 L 1.671875 -2.421875 C 2.023438 -1.960938 2.421875 -1.609375 2.859375 -1.359375 C 3.304688 -1.117188 3.828125 -1 4.421875 -1 C 5.023438 -1 5.5 -1.128906 5.84375 -1.390625 C 6.1875 -1.660156 6.359375 -2.035156 6.359375 -2.515625 C 6.359375 -2.867188 6.238281 -3.175781 6 -3.4375 C 5.769531 -3.695312 5.347656 -3.875 4.734375 -3.96875 L 4 -4.078125 C 3.570312 -4.140625 3.175781 -4.234375 2.8125 -4.359375 C 2.457031 -4.484375 2.144531 -4.648438 1.875 -4.859375 C 1.601562 -5.066406 1.390625 -5.328125 1.234375 -5.640625 C 1.085938 -5.953125 1.015625 -6.320312 1.015625 -6.75 C 1.015625 -7.207031 1.097656 -7.601562 1.265625 -7.9375 C 1.441406 -8.28125 1.675781 -8.566406 1.96875 -8.796875 C 2.257812 -9.023438 2.609375 -9.195312 3.015625 -9.3125 C 3.421875 -9.425781 3.859375 -9.484375 4.328125 -9.484375 C 5.078125 -9.484375 5.707031 -9.347656 6.21875 -9.078125 C 6.726562 -8.816406 7.175781 -8.453125 7.5625 -7.984375 L 6.609375 -7.125 C 6.398438 -7.414062 6.097656 -7.675781 5.703125 -7.90625 C 5.304688 -8.144531 4.8125 -8.265625 4.21875 -8.265625 C 3.625 -8.265625 3.171875 -8.132812 2.859375 -7.875 C 2.554688 -7.613281 2.40625 -7.265625 2.40625 -6.828125 C 2.40625 -6.367188 2.554688 -6.035156 2.859375 -5.828125 C 3.171875 -5.628906 3.613281 -5.484375 4.1875 -5.390625 L 4.90625 -5.28125 C 5.925781 -5.125 6.648438 -4.828125 7.078125 -4.390625 C 7.515625 -3.953125 7.734375 -3.378906 7.734375 -2.671875 C 7.734375 -1.773438 7.425781 -1.066406 6.8125 -0.546875 C 6.207031 -0.0351562 5.375 0.21875 4.3125 0.21875 Z M 4.3125 0.21875 "/></g></g></g><g fill="#000000" fill-opacity="1"><g transform="translate(219.720831, 57.01883)"><g><path d="M 4.3125 0.21875 C 3.445312 0.21875 2.722656 0.0546875 2.140625 -0.265625 C 1.566406 -0.597656 1.066406 -1.039062 0.640625 -1.59375 L 1.671875 -2.421875 C 2.023438 -1.960938 2.421875 -1.609375 2.859375 -1.359375 C 3.304688 -1.117188 3.828125 -1 4.421875 -1 C 5.023438 -1 5.5 -1.128906 5.84375 -1.390625 C 6.1875 -1.660156 6.359375 -2.035156 6.359375 -2.515625 C 6.359375 -2.867188 6.238281 -3.175781 6 -3.4375 C 5.769531 -3.695312 5.347656 -3.875 4.734375 -3.96875 L 4 -4.078125 C 3.570312 -4.140625 3.175781 -4.234375 2.8125 -4.359375 C 2.457031 -4.484375 2.144531 -4.648438 1.875 -4.859375 C 1.601562 -5.066406 1.390625 -5.328125 1.234375 -5.640625 C 1.085938 -5.953125 1.015625 -6.320312 1.015625 -6.75 C 1.015625 -7.207031 1.097656 -7.601562 1.265625 -7.9375 C 1.441406 -8.28125 1.675781 -8.566406 1.96875 -8.796875 C 2.257812 -9.023438 2.609375 -9.195312 3.015625 -9.3125 C 3.421875 -9.425781 3.859375 -9.484375 4.328125 -9.484375 C 5.078125 -9.484375 5.707031 -9.347656 6.21875 -9.078125 C 6.726562 -8.816406 7.175781 -8.453125 7.5625 -7.984375 L 6.609375 -7.125 C 6.398438 -7.414062 6.097656 -7.675781 5.703125 -7.90625 C 5.304688 -8.144531 4.8125 -8.265625 4.21875 -8.265625 C 3.625 -8.265625 3.171875 -8.132812 2.859375 -7.875 C 2.554688 -7.613281 2.40625 -7.265625 2.40625 -6.828125 C 2.40625 -6.367188 2.554688 -6.035156 2.859375 -5.828125 C 3.171875 -5.628906 3.613281 -5.484375 4.1875 -5.390625 L 4.90625 -5.28125 C 5.925781 -5.125 6.648438 -4.828125 7.078125 -4.390625 C 7.515625 -3.953125 7.734375 -3.378906 7.734375 -2.671875 C 7.734375 -1.773438 7.425781 -1.066406 6.8125 -0.546875 C 6.207031 -0.0351562 5.375 0.21875 4.3125 0.21875 Z M 4.3125 0.21875 "/></g></g></g><g fill="#000000" fill-opacity="1"><g transform="translate(228.466705, 57.01883)"><g><path d="M 2.25 -11.4375 C 1.9375 -11.4375 1.707031 -11.507812 1.5625 -11.65625 C 1.425781 -11.8125 1.359375 -12.007812 1.359375 -12.25 L 1.359375 -12.484375 C 1.359375 -12.722656 1.425781 -12.914062 1.5625 -13.0625 C 1.707031 -13.207031 1.9375 -13.28125 2.25 -13.28125 C 2.550781 -13.28125 2.769531 -13.207031 2.90625 -13.0625 C 3.050781 -12.914062 3.125 -12.722656 3.125 -12.484375 L 3.125 -12.25 C 3.125 -12.007812 3.050781 -11.8125 2.90625 -11.65625 C 2.769531 -11.507812 2.550781 -11.4375 2.25 -11.4375 Z M 1.53125 -9.265625 L 2.96875 -9.265625 L 2.96875 0 L 1.53125 0 Z M 1.53125 -9.265625 "/></g></g></g><g fill="#000000" fill-opacity="1"><g transform="translate(232.956372, 57.01883)"><g><path d="M 9.328125 1.015625 C 9.328125 1.972656 8.953125 2.675781 8.203125 3.125 C 7.460938 3.582031 6.34375 3.8125 4.84375 3.8125 C 3.394531 3.8125 2.351562 3.613281 1.71875 3.21875 C 1.082031 2.820312 0.765625 2.257812 0.765625 1.53125 C 0.765625 1.019531 0.894531 0.625 1.15625 0.34375 C 1.425781 0.0625 1.789062 -0.140625 2.25 -0.265625 L 2.25 -0.46875 C 1.695312 -0.726562 1.421875 -1.160156 1.421875 -1.765625 C 1.421875 -2.222656 1.566406 -2.578125 1.859375 -2.828125 C 2.160156 -3.078125 2.546875 -3.257812 3.015625 -3.375 L 3.015625 -3.453125 C 2.460938 -3.710938 2.035156 -4.085938 1.734375 -4.578125 C 1.429688 -5.066406 1.28125 -5.632812 1.28125 -6.28125 C 1.28125 -6.75 1.363281 -7.179688 1.53125 -7.578125 C 1.695312 -7.972656 1.929688 -8.3125 2.234375 -8.59375 C 2.535156 -8.875 2.898438 -9.09375 3.328125 -9.25 C 3.753906 -9.40625 4.226562 -9.484375 4.75 -9.484375 C 5.414062 -9.484375 6.003906 -9.363281 6.515625 -9.125 L 6.515625 -9.28125 C 6.515625 -9.644531 6.597656 -9.941406 6.765625 -10.171875 C 6.929688 -10.398438 7.207031 -10.515625 7.59375 -10.515625 L 8.984375 -10.515625 L 8.984375 -9.265625 L 7.21875 -9.265625 L 7.21875 -8.671875 C 7.550781 -8.378906 7.8125 -8.03125 8 -7.625 C 8.1875 -7.226562 8.28125 -6.78125 8.28125 -6.28125 C 8.28125 -5.8125 8.195312 -5.378906 8.03125 -4.984375 C 7.863281 -4.597656 7.625 -4.265625 7.3125 -3.984375 C 7.007812 -3.703125 6.640625 -3.484375 6.203125 -3.328125 C 5.773438 -3.171875 5.300781 -3.09375 4.78125 -3.09375 C 4.476562 -3.09375 4.175781 -3.117188 3.875 -3.171875 C 3.5625 -3.085938 3.28125 -2.960938 3.03125 -2.796875 C 2.78125 -2.640625 2.65625 -2.421875 2.65625 -2.140625 C 2.65625 -1.859375 2.785156 -1.671875 3.046875 -1.578125 C 3.316406 -1.484375 3.660156 -1.4375 4.078125 -1.4375 L 6.046875 -1.4375 C 7.203125 -1.4375 8.035156 -1.21875 8.546875 -0.78125 C 9.066406 -0.34375 9.328125 0.253906 9.328125 1.015625 Z M 7.984375 1.125 C 7.984375 0.757812 7.84375 0.460938 7.5625 0.234375 C 7.28125 0.015625 6.78125 -0.09375 6.0625 -0.09375 L 2.984375 -0.09375 C 2.410156 0.175781 2.125 0.597656 2.125 1.171875 C 2.125 1.578125 2.273438 1.921875 2.578125 2.203125 C 2.878906 2.492188 3.394531 2.640625 4.125 2.640625 L 5.453125 2.640625 C 6.253906 2.640625 6.875 2.515625 7.3125 2.265625 C 7.757812 2.015625 7.984375 1.632812 7.984375 1.125 Z M 4.78125 -4.234375 C 5.382812 -4.234375 5.863281 -4.378906 6.21875 -4.671875 C 6.582031 -4.960938 6.765625 -5.414062 6.765625 -6.03125 L 6.765625 -6.53125 C 6.765625 -7.144531 6.582031 -7.597656 6.21875 -7.890625 C 5.863281 -8.179688 5.382812 -8.328125 4.78125 -8.328125 C 4.164062 -8.328125 3.675781 -8.179688 3.3125 -7.890625 C 2.957031 -7.597656 2.78125 -7.144531 2.78125 -6.53125 L 2.78125 -6.03125 C 2.78125 -5.414062 2.957031 -4.960938 3.3125 -4.671875 C 3.675781 -4.378906 4.164062 -4.234375 4.78125 -4.234375 Z M 4.78125 -4.234375 "/></g></g></g><g fill="#000000" fill-opacity="1"><g transform="translate(242.438548, 57.01883)"><g><path d="M 1.53125 0 L 1.53125 -9.265625 L 2.96875 -9.265625 L 2.96875 -7.75 L 3.03125 -7.75 C 3.257812 -8.28125 3.578125 -8.703125 3.984375 -9.015625 C 4.398438 -9.328125 4.957031 -9.484375 5.65625 -9.484375 C 6.613281 -9.484375 7.367188 -9.171875 7.921875 -8.546875 C 8.484375 -7.929688 8.765625 -7.0625 8.765625 -5.9375 L 8.765625 0 L 7.328125 0 L 7.328125 -5.6875 C 7.328125 -7.351562 6.625 -8.1875 5.21875 -8.1875 C 4.9375 -8.1875 4.660156 -8.148438 4.390625 -8.078125 C 4.117188 -8.003906 3.875 -7.894531 3.65625 -7.75 C 3.445312 -7.613281 3.28125 -7.429688 3.15625 -7.203125 C 3.03125 -6.984375 2.96875 -6.722656 2.96875 -6.421875 L 2.96875 0 Z M 1.53125 0 "/></g></g></g><g fill="#000000" fill-opacity="1"><g transform="translate(252.639066, 57.01883)"><g><path d="M 1.53125 0 L 1.53125 -9.265625 L 2.96875 -9.265625 L 2.96875 -7.75 L 3.03125 -7.75 C 3.144531 -7.988281 3.269531 -8.210938 3.40625 -8.421875 C 3.539062 -8.640625 3.707031 -8.820312 3.90625 -8.96875 C 4.101562 -9.125 4.332031 -9.25 4.59375 -9.34375 C 4.851562 -9.4375 5.164062 -9.484375 5.53125 -9.484375 C 6.132812 -9.484375 6.691406 -9.332031 7.203125 -9.03125 C 7.722656 -8.738281 8.109375 -8.257812 8.359375 -7.59375 L 8.40625 -7.59375 C 8.570312 -8.09375 8.882812 -8.53125 9.34375 -8.90625 C 9.800781 -9.289062 10.425781 -9.484375 11.21875 -9.484375 C 12.164062 -9.484375 12.90625 -9.171875 13.4375 -8.546875 C 13.96875 -7.929688 14.234375 -7.0625 14.234375 -5.9375 L 14.234375 0 L 12.796875 0 L 12.796875 -5.6875 C 12.796875 -6.519531 12.632812 -7.144531 12.3125 -7.5625 C 11.988281 -7.976562 11.472656 -8.1875 10.765625 -8.1875 C 10.484375 -8.1875 10.210938 -8.148438 9.953125 -8.078125 C 9.691406 -8.003906 9.457031 -7.894531 9.25 -7.75 C 9.050781 -7.613281 8.890625 -7.429688 8.765625 -7.203125 C 8.648438 -6.984375 8.59375 -6.722656 8.59375 -6.421875 L 8.59375 0 L 7.15625 0 L 7.15625 -5.6875 C 7.15625 -6.519531 6.992188 -7.144531 6.671875 -7.5625 C 6.347656 -7.976562 5.847656 -8.1875 5.171875 -8.1875 C 4.878906 -8.1875 4.601562 -8.148438 4.34375 -8.078125 C 4.082031 -8.003906 3.847656 -7.894531 3.640625 -7.75 C 3.441406 -7.613281 3.28125 -7.429688 3.15625 -7.203125 C 3.03125 -6.984375 2.96875 -6.722656 2.96875 -6.421875 L 2.96875 0 Z M 1.53125 0 "/></g></g></g><g fill="#000000" fill-opacity="1"><g transform="translate(268.316975, 57.01883)"><g><path d="M 5.015625 0.21875 C 4.378906 0.21875 3.804688 0.101562 3.296875 -0.125 C 2.785156 -0.351562 2.347656 -0.675781 1.984375 -1.09375 C 1.617188 -1.519531 1.335938 -2.03125 1.140625 -2.625 C 0.941406 -3.21875 0.84375 -3.882812 0.84375 -4.625 C 0.84375 -5.363281 0.941406 -6.03125 1.140625 -6.625 C 1.335938 -7.21875 1.617188 -7.726562 1.984375 -8.15625 C 2.347656 -8.582031 2.785156 -8.910156 3.296875 -9.140625 C 3.804688 -9.367188 4.378906 -9.484375 5.015625 -9.484375 C 5.628906 -9.484375 6.179688 -9.367188 6.671875 -9.140625 C 7.171875 -8.910156 7.59375 -8.59375 7.9375 -8.1875 C 8.28125 -7.789062 8.546875 -7.316406 8.734375 -6.765625 C 8.921875 -6.210938 9.015625 -5.609375 9.015625 -4.953125 L 9.015625 -4.265625 L 2.359375 -4.265625 L 2.359375 -3.84375 C 2.359375 -3.445312 2.421875 -3.078125 2.546875 -2.734375 C 2.671875 -2.390625 2.847656 -2.09375 3.078125 -1.84375 C 3.304688 -1.59375 3.59375 -1.394531 3.9375 -1.25 C 4.28125 -1.113281 4.664062 -1.046875 5.09375 -1.046875 C 5.6875 -1.046875 6.195312 -1.179688 6.625 -1.453125 C 7.0625 -1.722656 7.398438 -2.117188 7.640625 -2.640625 L 8.671875 -1.90625 C 8.367188 -1.269531 7.898438 -0.753906 7.265625 -0.359375 C 6.628906 0.0234375 5.878906 0.21875 5.015625 0.21875 Z M 5.015625 -8.28125 C 4.617188 -8.28125 4.257812 -8.207031 3.9375 -8.0625 C 3.613281 -7.925781 3.332031 -7.734375 3.09375 -7.484375 C 2.863281 -7.234375 2.679688 -6.9375 2.546875 -6.59375 C 2.421875 -6.257812 2.359375 -5.882812 2.359375 -5.46875 L 2.359375 -5.34375 L 7.46875 -5.34375 L 7.46875 -5.546875 C 7.46875 -6.367188 7.242188 -7.03125 6.796875 -7.53125 C 6.347656 -8.03125 5.753906 -8.28125 5.015625 -8.28125 Z M 5.015625 -8.28125 "/></g></g></g><g fill="#000000" fill-opacity="1"><g transform="translate(278.176283, 57.01883)"><g><path d="M 1.53125 0 L 1.53125 -9.265625 L 2.96875 -9.265625 L 2.96875 -7.75 L 3.03125 -7.75 C 3.257812 -8.28125 3.578125 -8.703125 3.984375 -9.015625 C 4.398438 -9.328125 4.957031 -9.484375 5.65625 -9.484375 C 6.613281 -9.484375 7.367188 -9.171875 7.921875 -8.546875 C 8.484375 -7.929688 8.765625 -7.0625 8.765625 -5.9375 L 8.765625 0 L 7.328125 0 L 7.328125 -5.6875 C 7.328125 -7.351562 6.625 -8.1875 5.21875 -8.1875 C 4.9375 -8.1875 4.660156 -8.148438 4.390625 -8.078125 C 4.117188 -8.003906 3.875 -7.894531 3.65625 -7.75 C 3.445312 -7.613281 3.28125 -7.429688 3.15625 -7.203125 C 3.03125 -6.984375 2.96875 -6.722656 2.96875 -6.421875 L 2.96875 0 Z M 1.53125 0 "/></g></g></g><g fill="#000000" fill-opacity="1"><g transform="translate(288.376801, 57.01883)"><g><path d="M 3.578125 0 C 3.066406 0 2.679688 -0.140625 2.421875 -0.421875 C 2.171875 -0.703125 2.046875 -1.070312 2.046875 -1.53125 L 2.046875 -8 L 0.515625 -8 L 0.515625 -9.265625 L 1.375 -9.265625 C 1.6875 -9.265625 1.898438 -9.328125 2.015625 -9.453125 C 2.128906 -9.578125 2.1875 -9.796875 2.1875 -10.109375 L 2.1875 -11.828125 L 3.484375 -11.828125 L 3.484375 -9.265625 L 5.515625 -9.265625 L 5.515625 -8 L 3.484375 -8 L 3.484375 -1.25 L 5.375 -1.25 L 5.375 0 Z M 3.578125 0 "/></g></g></g></svg>